<?xml version="1.0" encoding="UTF-8" standalone="no"?>
<svg
   xmlns:dc="http://purl.org/dc/elements/1.1/"
   xmlns:cc="http://creativecommons.org/ns#"
   xmlns:rdf="http://www.w3.org/1999/02/22-rdf-syntax-ns#"
   xmlns:svg="http://www.w3.org/2000/svg"
   xmlns="http://www.w3.org/2000/svg"
   viewBox="0 0 1176.6946 342.17152"
   height="342.17151"
   width="1176.6946"
   id="svg10"
   version="1.1">
  <metadata
     id="metadata16">
    <rdf:RDF>
      <cc:Work
         rdf:about="">
        <dc:format>image/svg+xml</dc:format>
        <dc:type
           rdf:resource="http://purl.org/dc/dcmitype/StillImage" />
        <dc:title></dc:title>
      </cc:Work>
    </rdf:RDF>
  </metadata>
  <defs
     id="defs14" />
  <path
     id="path20"
     d="M 18.664224,339.75713 C 0.77676589,338.73437 0.44699489,338.67624 0.00392589,336.46817 -0.48997611,334.00675 45.780402,73.084178 47.052192,71.159079 47.483492,70.506212 59.065342,56.244243 72.789602,39.465823 95.683162,11.477619 103.90897,2.4534106 108.51685,0.27092257 c 0.93985,-0.445152 10.23926,-0.3295 20.66536,0.257015 l 18.95653,1.06638103 7.9431,11.5428874 c 4.3687,6.348583 13.79228,21.690273 20.94128,34.092633 9.81941,17.035071 33.9865,57.704791 35.49755,59.737251 0.29283,0.39387 43.79315,5.94087 44.13303,5.62769 0.16964,-0.15632 -1.74601,-3.01667 -4.25699,-6.35637 -7.80917,-10.386425 -7.56029,-9.221235 -2.54037,-11.893865 4.11922,-2.193098 6.11333,-2.417684 26.33055,-2.965556 12.03059,-0.326008 22.05333,-0.758169 22.27274,-0.960356 0.21941,-0.202176 -2.1581,-3.780585 -5.28335,-7.95202 -3.12526,-4.171436 -5.54516,-7.710774 -5.37756,-7.865217 1.73856,-1.601993 106.08776,-5.198784 107.46496,-3.704183 0.16972,0.184186 -2.50845,4.711011 -5.95147,10.05963 -3.44302,5.34861 -6.18837,9.769893 -6.10075,9.825068 0.0876,0.05522 9.74165,0.04666 21.4534,-0.01895 11.71174,-0.06559 21.49277,0.09635 21.73561,0.359896 0.24284,0.263539 -0.57711,3.559218 -1.82211,7.323718 -1.245,3.764515 -2.28152,7.295645 -2.30338,7.846965 -0.0236,0.59537 3.57887,1.15033 8.87184,1.36671 7.89755,0.32285 9.17644,0.6344 11.23904,2.73792 l 2.32744,2.37359 1.277,-15.146035 c 2.24614,-26.640509 2.49153,-24.664647 -3.65914,-29.463032 -2.91992,-2.277939 -5.15493,-4.283634 -4.96669,-4.45709 0.18824,-0.173456 20.60457,-3.077111 45.36962,-6.452571 l 45.02736,-6.137199 10.6778,5.912861 c 5.87279,3.252065 10.87386,5.920867 11.11349,5.930663 0.23962,0.0098 0.0556,-1.616279 -0.40899,-3.613491 -0.46457,-1.997223 -0.66825,-3.793872 -0.45261,-3.99256 0.21562,-0.198688 6.49823,-2.607999 13.96137,-5.35401 18.2205,-6.704118 67.36001,-17.155371 98.882,-21.030754 l 22.53463,-2.77045 20.04534,1.682709 20.04533,1.682708 -5.13782,1.561934 c -9.73722,2.960183 -48.78259,29.94509 -63.66001,43.996482 -4.23386,3.99879 -4.99003,5.22901 -4.54107,7.387821 0.74198,3.567684 4.5414,5.419431 13.58708,6.622025 l 7.69582,1.023129 -3.16626,-7.774778 c -1.74144,-4.27612 -3.15761,-7.986221 -3.14705,-8.244655 0.0106,-0.258445 1.41039,0.323148 3.11072,1.292429 2.74038,1.562157 6.07864,1.801412 29.39248,2.106577 l 26.30099,0.344271 2.05462,4.709273 2.05462,4.709284 6.92311,0.283018 6.92311,0.283019 -2.49054,-3.354529 c -1.36979,-1.84499 -3.33559,-4.574694 -4.36846,-6.066007 l -1.87792,-2.711469 28.4016,-8.444922 c 38.61108,-11.480608 81.44093,-20.631381 102.78834,-21.961152 8.48196,-0.528355 15.6296,-0.735064 15.88366,-0.459357 0.25405,0.275717 -2.6174,1.899004 -6.38102,3.607321 -6.18154,2.805809 -8.10382,4.498935 -19.88822,17.517292 -11.74161,12.971076 -14.05358,16.170371 -23.13479,32.01384 -7.94682,13.864355 -10.28794,18.818435 -11.02388,23.327825 l -0.93438,5.72524 14.05426,-4.31446 c 8.86457,-2.7213 16.7401,-4.47267 21.32783,-4.74292 4.00047,-0.23565 7.2621,-0.27063 7.24806,-0.0777 -0.0139,0.19291 -1.50363,4.48397 -3.31024,9.53568 l -3.28473,9.18494 2.68718,-0.41538 c 1.47797,-0.22846 7.8868,-0.91139 14.24187,-1.51763 18.37597,-1.75295 16.82709,-1.10701 17.88572,-7.4589 l 0.92002,-5.51937 7.96113,1.02355 7.96114,1.02357 -0.47956,-3.60233 c -0.26369,-1.98128 -0.68234,-5.13474 -0.93034,-7.0077 l -0.45078,-3.40538 12.04568,-0.23075 12.04576,-0.23075 1.6538,-3.14626 c 0.9095,-1.73044 3.0034,-8.690215 4.653,-15.466152 4.6699,-19.181631 5.3902,-20.561083 14.5554,-27.878595 10.0341,-8.011182 18.5294,-11.87965 31.2151,-14.214344 9.5646,-1.760263 10.7448,-1.761077 26.45396,-0.01807 15.9109,1.765394 29.5639,4.475218 33.1303,6.575654 0.9512,0.560211 2.9784,3.418297 4.5048,6.351302 3.3536,6.444082 3.485,12.355591 0.3557,16.015685 -1.1562,1.352322 -2.1192,2.873819 -2.1399,3.381096 -0.021,0.507276 5.3753,3.467356 11.9913,6.577938 l 12.029,5.655621 19.8093,-18.234938 19.8093,-18.234946 23.4934,36.190174 c 12.9215,19.904605 23.7892,36.729105 24.1506,37.387775 0.3881,0.7073 -4.4803,7.03846 -11.8916,15.46451 -6.9017,7.84679 -12.5609,14.56723 -12.576,14.9343 -0.015,0.36707 3.4115,2.04987 7.6144,3.73955 6.3758,2.56326 8.9953,4.38687 15.8135,11.0089 4.4945,4.36521 11.2748,10.73225 15.0673,14.14898 6.1921,5.57863 6.9449,6.6689 7.3809,10.68946 0.8084,7.45725 -1.0644,14.41005 -8.6786,32.2188 -1.9533,4.56858 -3.2949,6.09535 -7.9132,9.0054 -3.0587,1.92726 -7.7744,3.99221 -10.4794,4.58874 -9.1368,2.01501 -9.3785,2.28221 -9.7247,10.75225 -0.3231,7.90262 -1.9793,12.73582 -5.2945,15.4506 -1.8999,1.55576 -2.7648,1.47959 -16.6881,-1.46958 -24.1548,-5.11632 -26.6853,-6.02853 -41.53,-14.97102 -11.6481,-7.01686 -14.8362,-9.50905 -21.51,-16.815 -4.3093,-4.71746 -8.0261,-8.585 -8.2597,-8.59455 -0.2337,-0.01 -2.5044,4.12565 -5.0461,9.18932 l -4.6213,9.20668 -15.5867,11.73538 c -8.5727,6.45446 -16.3474,12.24003 -17.277,12.85684 -1.4259,0.946 -3.2519,-0.26966 -11.67116,-7.76961 -9.9147,-8.83222 -11.5607,-9.49543 -11.7991,-4.75418 -0.087,1.74443 3.5078,1.65966 -53.9228,1.27102 l -17.82054,-0.1206 -3.69872,-5.28466 c -2.22965,-3.1856 -4.24695,-5.09965 -5.07871,-4.81887 -0.7589,0.2562 -1.56792,0.45811 -1.79773,0.44871 -0.22981,-0.009 -0.48218,1.55661 -0.56081,3.48 -0.0786,1.92339 -0.39186,3.48691 -0.6961,3.47447 -0.30415,-0.0124 -7.56377,0.81673 -16.13243,1.84259 -8.56859,1.02586 -15.78445,1.85681 -16.03522,1.84656 -0.25077,-0.0102 -0.40998,-1.1427 -0.35382,-2.51655 0.0993,-2.42881 -0.0932,-2.5059 -6.95938,-2.78659 -6.60679,-0.27009 -7.01538,-0.41568 -6.34554,-2.26108 0.4692,-1.29263 0.26216,-1.98789 -0.60072,-2.01733 -0.72417,-0.0246 -13.1357,2.62812 -27.5812,5.89518 l -26.26455,5.9401 -1.95239,-2.62436 -1.9524,-2.62436 -20.96625,4.17268 c -11.53144,2.29497 -21.20545,4.16289 -21.4978,4.15094 -0.29236,-0.0119 -0.0646,-3.76909 0.50607,-8.34918 1.01453,-8.14196 0.98638,-8.34344 -1.2633,-9.0455 -3.53425,-1.10292 -3.79111,-0.98928 -3.90213,1.72647 -0.15073,3.68729 -2.83694,6.90249 -8.11419,9.71211 -3.72168,1.98143 -24.76363,8.10881 -65.87783,19.18348 -1.91245,0.51515 -2.26098,0.2427 -2.17718,-1.70191 0.0551,-1.27338 1.28103,-4.06846 2.72477,-6.21127 1.44375,-2.14282 2.65282,-4.23268 2.68682,-4.64413 0.034,-0.41146 -4.43443,-0.93191 -9.92984,-1.15656 -9.32554,-0.38124 -9.98621,-0.54168 -9.90996,-2.4068 0.0449,-1.09908 -0.48667,-2.02156 -1.18133,-2.04996 -0.69466,-0.0284 -11.69864,-0.95297 -24.45329,-2.05461 l -23.19025,-2.00296 -17.43123,4.49182 c -9.58717,2.47051 -17.95734,4.66114 -18.60037,4.86808 -0.64304,0.20693 -2.58404,-2.39315 -4.31333,-5.77795 l -3.14415,-6.15418 -3.49289,5.33248 -3.4929,5.33248 -4.51441,-4.19779 -4.51442,-4.19779 -0.49817,4.87231 -0.49817,4.87231 -14.71455,0.0247 c -24.37709,0.041 -51.47836,0.47313 -56.35614,0.89862 l -4.59133,0.40051 -5.12383,-7.32051 c -2.81811,-4.02627 -5.65837,-7.34235 -6.31171,-7.36906 -1.39014,-0.0568 -4.44002,2.56088 -4.49297,3.85633 -0.0201,0.49117 -1.49694,2.42532 -3.28189,4.29811 l -3.24539,3.40508 -19.78035,-0.80863 c -19.17504,-0.78388 -20.22998,-0.93521 -34.4732,-4.94498 -8.08106,-2.275 -15.46985,-4.40892 -16.41954,-4.74203 -1.44792,-0.50787 -1.75353,0.0505 -1.89284,3.45834 -0.0914,2.2352 -0.37131,4.0556 -0.62207,4.04535 -0.25077,-0.0102 -7.37473,-1.42742 -15.83102,-3.14926 -8.4563,-1.72185 -17.19767,-3.20513 -19.42526,-3.2962 -3.96266,-0.16199 -4.05326,-0.09 -4.19314,3.33151 l -0.14296,3.49708 -13.2395,-0.54124 c -12.93444,-0.52876 -14.20341,-0.37308 -55.07136,6.75619 -23.00752,4.01358 -41.94452,7.29281 -42.08222,7.28719 -0.13769,-0.006 -0.19006,-1.92187 -0.11639,-4.25831 0.12187,-3.86491 -0.48723,-4.97509 -6.75289,-12.30822 l -6.88685,-8.06014 -9.80507,7.26827 c -6.38231,4.73107 -13.14242,8.66598 -19.36547,11.27224 -10.4193,4.36365 -12.86045,4.2973 -18.47397,-0.50211 -2.39581,-2.04835 -2.46728,-2.05092 -11.54458,-0.415 -5.02361,0.90539 -9.28549,1.63995 -9.47083,1.63238 -0.18534,-0.008 -4.7034,2.9796 -10.04011,6.63818 -16.77514,11.50016 -25.98398,23.9602 -36.018678,48.73511 -2.46042,6.07459 -4.60079,11.16201 -4.7564,11.30539 -0.15561,0.14338 -4.72241,0.98657 -10.14844,1.87374 -10.29782,1.68372 -10.57456,1.67803 -62.307577,-1.27993 z m 62.109728,0.36031 c 4.89724,-0.81628 9.26165,-1.85864 9.6987,-2.31636 0.43705,-0.45773 2.46378,-5.04256 4.50382,-10.18853 10.612608,-26.77003 22.124338,-40.85532 44.758378,-54.76464 1.12929,-0.69398 6.28164,-2.0221 11.44967,-2.95137 9.34207,-1.67981 9.41038,-1.67767 11.80716,0.37152 5.61353,4.79942 8.05468,4.86577 18.47397,0.50211 6.2394,-2.6131 12.96653,-6.53188 19.36585,-11.28125 l 9.80543,-7.27729 7.37016,8.58935 c 6.48236,7.55468 7.35561,9.04898 7.24935,12.40499 -0.10013,3.16188 0.18251,3.73692 1.64944,3.35625 0.97363,-0.25265 19.69841,-3.57091 41.61061,-7.3739 38.2574,-6.6398 40.34556,-6.89388 52.55506,-6.39475 l 12.71469,0.51978 0.14296,-3.49708 c 0.14229,-3.48048 0.16445,-3.4962 4.65574,-3.3126 3.90448,0.15962 24.42736,3.89714 32.5187,5.92214 2.61915,0.65549 2.73086,0.52433 2.89105,-3.39422 0.0917,-2.24184 0.35658,-4.06829 0.58875,-4.0588 0.23217,0.009 7.83712,2.12189 16.89989,4.69422 16.36402,4.64467 16.61458,4.68254 36.2948,5.48708 l 19.81703,0.81012 2.71241,-2.96841 c 1.49182,-1.63262 2.72937,-3.38353 2.75011,-3.89092 0.0579,-1.41564 4.02562,-4.76281 5.57098,-4.69964 0.75527,0.0309 3.65986,3.34427 6.45463,7.36311 5.04952,7.26111 5.10664,7.30461 9.10009,6.93177 4.01446,-0.37481 30.84151,-0.80571 56.83472,-0.91287 l 13.76381,-0.0567 0.22543,-5.51443 0.22543,-5.51442 5.12487,4.75385 5.12487,4.75385 3.45993,-5.28216 c 1.90297,-2.90519 3.61663,-5.27575 3.80813,-5.26793 0.19151,0.008 1.68973,2.65874 3.32939,5.89091 1.63966,3.23217 3.05613,5.97675 3.14769,6.09905 0.0916,0.12232 8.33879,-1.91754 18.32716,-4.53302 l 18.16066,-4.75539 23.43846,1.98569 c 12.89115,1.09213 24.22527,2.01838 25.18694,2.05833 1.08201,0.045 1.71735,0.83437 1.6668,2.07098 -0.0765,1.87234 0.58442,2.02557 10.48288,2.43022 l 10.56456,0.43188 -3.36875,5.36679 c -1.85282,2.95174 -3.24824,5.98101 -3.10095,6.73172 0.19955,1.01701 8.20374,-0.80491 31.40079,-7.14746 37.70002,-10.30795 42.20948,-12.42199 42.56914,-19.95645 0.16715,-3.50137 0.30082,-3.56414 5.10551,-2.39724 l 3.202,0.77766 -1.04872,8.41644 c -0.98357,7.89359 -0.93257,8.38588 0.82092,7.92431 1.02829,-0.27068 10.49652,-2.19825 21.04049,-4.28348 l 19.17086,-3.79132 1.92156,2.60759 1.92158,2.6076 28.18796,-6.32406 c 15.50338,-3.47824 28.35978,-6.13761 28.56978,-5.90971 0.20999,0.2279 -0.1584,1.3316 -0.81865,2.45267 -1.16402,1.97643 -0.98707,2.04704 5.82885,2.32568 6.88955,0.28164 7.02721,0.33861 6.92395,2.86466 -0.0934,2.28366 0.21036,2.52516 2.66564,2.11972 1.52405,-0.25167 7.29539,-0.96211 12.82522,-1.57873 16.14431,-1.80027 15.57935,-1.6243 15.713,-4.89379 0.0747,-1.82769 0.84075,-3.23264 2.09273,-3.83827 2.74227,-1.3265 2.49027,-1.49316 6.53707,4.32318 l 3.64657,5.24105 18.50908,0.15451 c 10.1802,0.085 26.0187,0.19239 35.1968,0.2387 l 16.6875,0.0842 0.9611,-3.36222 0.9611,-3.3622 10.5456,9.38617 c 8.89216,7.91452 10.80996,9.21063 12.23236,8.26661 0.9278,-0.61576 8.4869,-6.23893 16.7979,-12.49594 l 15.1111,-11.37639 5.1193,-10.0804 5.1192,-10.08041 8.2379,9.10931 c 7.2029,7.96479 9.9561,10.14432 21.9129,17.34712 14.8429,8.94141 17.377,9.85509 41.5126,14.96737 11.6501,2.46764 14.9796,2.86867 16.1851,1.94945 2.7822,-2.12148 4.4655,-7.40209 4.7753,-14.98062 0.3539,-8.6555 1.2028,-9.5898 10.5965,-11.66144 4.8035,-1.05934 13.5551,-5.75292 15.4656,-8.29436 1.6793,-2.23398 9.499,-22.97376 10.3317,-27.40235 0.4878,-2.59474 0.6722,-6.69871 0.4098,-9.11991 -0.4222,-3.8942 -1.2187,-5.06723 -6.9018,-10.16482 -3.5335,-3.16943 -10.0924,-9.32697 -14.5751,-13.68341 -7.0386,-6.84021 -9.3282,-8.40072 -16.7831,-11.43834 -4.7479,-1.93463 -8.4041,-3.8555 -8.1249,-4.26858 0.2793,-0.41308 6.1593,-7.17636 13.0666,-15.02951 7.4175,-8.43309 12.2898,-14.76874 11.9018,-15.47606 -0.3614,-0.65869 -11.0367,-17.21217 -23.7228,-36.785535 l -23.0656,-35.587911 -19.7735,18.167222 -19.7734,18.167229 -12.6588,-6.019983 c -6.9624,-3.310989 -12.8008,-6.174066 -12.9743,-6.362392 -0.1736,-0.188336 0.8652,-1.81311 2.3084,-3.610634 3.6543,-4.551581 3.7066,-9.893985 0.1633,-16.702266 -2.2697,-4.36136 -3.4625,-5.544787 -6.5708,-6.519562 -7.7654,-2.435269 -14.6026,-3.651099 -30.37,-5.400576 -15.41496,-1.710361 -16.65446,-1.708129 -26.19196,0.04715 -12.481,2.297035 -21.1395,6.187298 -30.7194,13.80236 -8.6144,6.84765 -9.4058,8.394634 -14.0178,27.399924 -1.6533,6.813159 -3.879,13.928184 -4.9461,15.811174 l -1.9402,3.42361 -11.7602,0.39876 c -11.27642,0.38236 -11.74298,0.48678 -11.34286,2.53881 0.22951,1.17702 0.64374,4.34068 0.9206,7.03034 l 0.50337,4.89032 -8.01109,-1.0404 -8.01108,-1.0404 -0.92722,5.56342 c -0.51011,3.05987 -1.05861,5.55804 -1.21908,5.55148 -0.16046,-0.007 -8.0939,0.79928 -17.62993,1.79075 -9.53603,0.99148 -17.46981,1.65989 -17.63062,1.48537 -0.16081,-0.17451 1.17455,-4.43475 2.96746,-9.4672 l 3.25985,-9.14989 -6.69417,0.43054 c -3.80468,0.24471 -12.74974,2.28578 -20.72326,4.72861 -7.71601,2.36395 -14.2707,4.2882 -14.56599,4.27613 -0.29529,-0.0121 -0.10791,-2.81926 0.41639,-6.2382 0.79703,-5.19721 2.60931,-9.10178 11.05517,-23.818325 9.17301,-15.983599 11.35021,-18.980259 23.67854,-32.590844 11.35652,-12.537713 14.42593,-15.345002 18.77009,-17.167211 2.85638,-1.198148 5.08662,-2.288261 4.95609,-2.422485 -0.13053,-0.134213 -6.55859,0.147461 -14.28458,0.625943 -19.62448,1.21538 -60.8887,10.033766 -98.44145,21.037455 -15.87829,4.652646 -29.05076,8.595692 -29.27215,8.762328 -0.46862,0.352723 0.97444,2.635662 5.38064,8.512272 l 3.16429,4.220261 -8.09027,-0.330732 -8.09027,-0.330732 -2.04668,-4.701462 -2.04667,-4.701463 -26.1189,-0.343702 c -18.94417,-0.249295 -26.69309,-0.681879 -28.20921,-1.574802 -2.67456,-1.57517 -2.65994,-1.411706 0.59141,6.615638 1.49998,3.703359 2.71843,6.948827 2.70767,7.212147 -0.0429,1.048374 -15.68254,-1.580751 -19.08372,-3.208084 -2.68005,-1.282299 -3.77049,-2.525107 -4.1639,-4.745709 -0.47176,-2.662782 0.1074,-3.611377 5.04025,-8.255855 13.07864,-12.313956 52.00372,-39.985139 60.93617,-43.318495 2.83415,-1.057629 1.45679,-1.32214 -13.73485,-2.637657 -16.53921,-1.432218 -17.35849,-1.40518 -40.01785,1.320337 -31.62977,3.804492 -80.82115,14.192013 -99.01021,20.907535 -8.23646,3.04095 -13.11695,5.367833 -13.08583,6.238951 0.0273,0.764094 0.31932,2.888073 0.64894,4.719946 l 0.5993,3.330679 -11.76092,-6.509771 -11.76093,-6.509761 -43.60091,5.884082 c -23.9805,3.23624 -43.83301,6.053163 -44.11668,6.259828 -0.51063,0.371994 1.68754,2.517961 6.43642,6.283537 l 2.45524,1.946862 -1.60695,21.197004 -1.60695,21.197015 -2.71606,-2.82378 c -2.32205,-2.41415 -3.78302,-2.93617 -10.07112,-3.59851 -4.69689,-0.49474 -8.18399,-0.3738 -9.64867,0.33472 -1.26146,0.6102 -2.46517,0.92325 -2.67488,0.69565 -0.20972,-0.2276 0.86747,-4.32111 2.39375,-9.09668 l 2.77506,-8.682862 -18.69692,-0.07914 c -10.2833,-0.04353 -20.26176,0.259572 -22.17433,0.673556 -1.91259,0.413984 -3.58992,0.630611 -3.72742,0.481391 -0.1375,-0.14922 2.65083,-4.792873 6.19629,-10.319227 3.54546,-5.526354 6.2709,-10.238272 6.05652,-10.470923 -1.50297,-1.631082 -101.66995,1.867604 -103.56904,3.617514 -0.27442,0.252862 2.06193,3.869211 5.19188,8.036315 3.12994,4.167114 5.56919,7.688637 5.42054,7.825609 -0.14865,0.136973 -10.5727,0.527747 -23.16455,0.868373 -19.74416,0.534119 -23.42955,0.892029 -26.78445,2.601169 l -3.89017,1.98183 1.78699,2.66637 c 0.98284,1.466525 3.72189,5.200495 6.08678,8.297735 2.36488,3.09726 4.15409,5.76561 3.97602,5.92971 -0.62769,0.57837 -45.87251,-5.63752 -46.47624,-6.38506 -1.81124,-2.24281 -23.0642,-37.809388 -35.08487,-58.714161 -7.61741,-13.247198 -17.20524,-28.95193 -21.3063,-34.899406 L 148.12548,3.0125803 129.15383,1.7365976 C 118.71943,1.0348066 109.4138,0.82550257 108.47463,1.2714736 104.04167,3.3765113 96.880612,11.269747 73.786182,39.506564 60.063332,56.285041 48.482662,70.547058 48.051352,71.199925 47.100142,72.639774 0.48015589,333.63163 0.79179789,335.77228 c 0.182233,1.25175 3.29233601,1.7275 18.17074611,2.77957 39.704188,2.80751 52.427148,3.12976 61.811408,1.56559 z m -34.39119,-10.43581 c -1.52236,-1.82695 -1.55212,-3.51124 -0.31405,-17.77766 0.7522,-8.66773 1.83002,-16.288 2.39515,-16.93393 0.5664,-0.64738 0.80173,-2.94971 0.52438,-5.13024 -0.3101,-2.43813 -0.0824,-4.19267 0.59355,-4.57318 0.60319,-0.33955 1.21629,-3.54294 1.36247,-7.11865 0.14618,-3.57572 0.70565,-7.24817 1.24326,-8.16101 0.5551,-0.94253 0.70335,-3.60499 0.34306,-6.16139 -0.34893,-2.47592 -0.24412,-5.16759 0.23291,-5.98148 0.47703,-0.8139 1.64332,-7.52816 2.59175,-14.92059 0.94845,-7.39243 2.01617,-14.10442 2.37272,-14.91553 0.35654,-0.81111 0.59187,-1.81074 0.52295,-2.22137 -0.31805,-1.89469 3.08524,-21.27799 3.90509,-22.24143 0.50847,-0.59752 0.68931,-1.7831 0.40187,-2.63463 -0.28745,-0.85153 -0.0302,-1.82543 0.57163,-2.16423 0.60183,-0.33879 1.16417,-2.3266 1.24964,-4.41736 0.18823,-4.60432 6.25543,-32.09112 11.16223,-50.56925 4.97557,-18.73713 12.07833,-41.30586 23.35278,-74.202494 5.302388,-15.471329 11.243088,-33.195947 13.201548,-39.388039 1.95847,-6.192092 4.45183,-12.395425 5.54081,-13.785184 2.96994,-3.790233 16.74386,-9.7476827 20.34714,-8.8004627 3.9971,1.050753 7.24906,6.8832307 10.75612,19.2914657 5.64705,19.979604 29.45642,87.934354 35.50971,101.348884 4.16519,9.23035 30.00412,61.02022 30.96368,62.06159 1.67846,1.82155 -1.15761,-15.75163 -5.33492,-33.05676 -2.74237,-11.36073 -4.87161,-20.76139 -4.73162,-20.89039 0.43313,-0.3991 48.00377,-0.53523 48.36942,-0.1384 0.18946,0.20561 0.81704,17.0276 1.39462,37.3822 0.57759,20.35461 1.42135,38.67957 1.87503,40.72216 1.51887,6.83831 8.74182,11.23164 18.98235,11.54597 7.12946,0.21879 12.15346,-1.46783 11.85701,-3.98064 -0.12898,-1.09317 -4.39365,-20.5905 -9.47705,-43.32739 -5.0834,-22.73689 -9.07002,-41.49877 -8.85918,-41.69305 0.44993,-0.41459 47.67658,4.55577 48.14795,5.06732 0.1758,0.19078 4.23856,22.70005 9.02836,50.02062 l 8.70872,49.67374 3.10488,-8.72899 3.10487,-8.72898 -1.75869,-30.12792 c -0.96727,-16.57036 -1.94194,-32.2747 -2.16591,-34.89854 l -0.40723,-4.77061 -7.36146,-0.30094 -7.36147,-0.30094 -0.8234,-3.78679 c -0.45288,-2.08274 -1.15148,-5.37652 -1.55247,-7.31952 l -0.72907,-3.53273 -14.63778,-1.09881 -14.63776,-1.09882 -12.65785,-11.5147 -12.65787,-11.51471 2.96838,-1.07199 c 1.71246,-0.61843 13.49372,-1.09857 27.84524,-1.13482 13.68228,-0.0346 25.0206,-0.19526 25.19626,-0.35713 0.17566,-0.16186 -2.00618,-3.28119 -4.84853,-6.93183 -3.46477,-4.450055 -4.76248,-6.843155 -3.93769,-7.261445 0.67663,-0.34315 10.92555,-0.94622 22.77539,-1.34016 11.84983,-0.39395 24.3998,-0.87778 27.8888,-1.07519 l 6.34367,-0.35892 -4.40126,7.929035 c -2.42067,4.36098 -4.41083,8.16383 -4.42256,8.4508 -0.0117,0.28697 8.97116,0.88938 19.96198,1.33869 l 19.98331,0.81692 -0.81968,20.05064 c -0.76131,18.62305 -0.6937,20.0196 0.94961,19.61468 8.66062,-2.13403 12.15533,-2.49733 20.85596,-2.16807 17.93681,0.67871 31.6158,7.57499 42.48879,21.42062 3.91629,4.98699 4.18052,5.15601 3.69283,2.36208 -0.28889,-1.65508 -3.12169,-21.79499 -6.29509,-44.75537 l -5.76981,-41.746128 4.27027,-4.009512 c 4.13258,-3.880228 4.53325,-4.02091 12.42536,-4.362723 4.60598,-0.19949 21.21242,-3.046007 38.158,-6.540652 16.50159,-3.403094 30.21967,-6.17858 30.48461,-6.167749 1.13966,0.04659 12.81186,44.896594 13.19603,50.705264 0.6207,9.38503 1.91681,4.23353 2.64796,-10.52456 0.32664,-6.59216 1.11604,-17.657586 1.75434,-24.589819 l 1.16053,-12.604065 18.11388,0.0599 c 20.45523,0.06764 46.06183,-2.966208 57.03598,-6.757571 3.48134,-1.202745 6.48751,-2.015553 6.68037,-1.80624 0.19287,0.209302 -0.32177,2.099459 -1.14364,4.200332 -1.27354,3.255478 -5.61088,9.244032 -17.55846,24.242927 -2.16204,2.714214 -2.41612,4.734591 -5.42985,43.175616 -1.73891,22.18048 -3.006,40.49708 -2.81575,40.70355 0.19026,0.20648 3.74846,-2.23902 7.90713,-5.43445 9.57182,-7.35475 16.96744,-10.70171 26.21439,-11.86356 12.38771,-1.55648 23.88548,1.46949 33.88309,8.91727 7.79181,5.80459 13.12182,14.10756 14.80781,23.06734 l 1.04386,5.54726 -0.25636,-7.51674 c -0.33845,-9.92379 -6.57941,-39.63918 -11.66111,-55.52265 -4.03189,-12.60212 -7.82443,-28.21148 -7.03187,-28.94179 0.48604,-0.44785 50.61586,7.5499 51.18342,8.16585 2.12107,2.30188 8.96751,54.04457 9.76133,73.7723 0.31019,7.70847 0.48553,8.27674 2.58016,8.36237 1.23605,0.0505 4.99924,0.49372 8.36267,0.98487 6.02191,0.87934 6.11687,0.85504 6.21686,-1.59085 0.0558,-1.36611 -0.6736,-5.07654 -1.62097,-8.24541 -0.94739,-3.16887 -2.05656,-9.47738 -2.46485,-14.01893 -0.40828,-4.54154 -1.44789,-12.79362 -2.31023,-18.33794 -1.28938,-8.28981 -3.24841,-40.16113 -2.96776,-48.28206 0.0929,-2.688645 3.10688,-3.823045 14.01645,-5.275545 11.4808,-1.52855 21.32625,-3.96581 36.82468,-9.115992 7.25001,-2.409206 13.38093,-4.37223 13.62425,-4.362283 0.24334,0.0099 -0.71396,1.434535 -2.12732,3.165749 -5.95319,7.292006 -7.99112,12.541166 -9.10702,23.457201 -1.05457,10.31607 -1.2661,49.54345 -0.27297,50.62123 0.28424,0.30847 7.57066,-3.18495 16.19204,-7.76315 8.62139,-4.57821 17.69426,-9.24743 20.16195,-10.37604 l 4.4867,-2.05203 -0.81723,4.56684 -0.81723,4.56684 7.80323,0.319 c 4.79371,0.19596 13.79514,-0.64408 23.33932,-2.17811 23.38681,-3.75895 21.51226,-3.67119 19.96298,-0.93454 -0.72448,1.27981 -2.24494,3.00565 -3.37877,3.83523 -2.05544,1.50377 -2.05538,1.5879 0.008,28.02371 l 2.06938,26.51539 3.57839,3.40773 c 1.96809,1.87424 5.22972,4.87814 7.24809,6.67533 3.55797,3.16814 3.65606,3.19474 3.22301,0.87366 -0.24563,-1.31667 -1.60231,-11.89909 -3.01476,-23.51648 -2.99375,-24.62303 -3.67881,-47.42331 -1.46329,-48.70309 0.77124,-0.44555 6.26618,-0.61816 12.21086,-0.38357 l 10.80856,0.42655 -3.36606,-4.46832 c -2.93918,-3.90179 -6.16248,-10.54613 -6.08115,-12.53557 0.015,-0.36711 2.15082,-0.2821 4.74624,0.18903 4.13037,0.74958 24.53827,0.47459 37.08307,-0.49968 l 4.299,-0.33387 -2.7625,-3.79998 c -4.4546,-6.12725 -5.7131,-10.79948 -5.3309,-19.79035 0.322,-7.583225 0.6266,-8.582495 4.5986,-15.101315 4.3351,-7.114689 8.2602,-10.451565 18.764,-15.951649 4.4612,-2.336115 5.3757,-2.428737 18.5924,-1.883133 7.64506,0.315536 15.65146,1.138032 17.79186,1.827616 4.5589,1.468769 11.6401,9.20982 15.5931,17.046215 2.3881,4.734221 2.5444,5.929541 2.1267,16.272736 -0.251,6.13963 -0.2371,11.3844 0.024,11.65477 0.2611,0.27036 6.5521,5.98004 13.9801,12.68817 10.63,9.59982 13.7317,11.91476 14.568,10.87279 3.3112,-4.12502 41.9189,-47.929417 42.0734,-47.736543 0.102,0.127278 3.915,8.528363 8.4735,18.669063 l 8.2881,18.43763 -17.1181,18.15449 -17.1182,18.15449 9.1939,10.78021 c 7.3616,8.63172 9.6096,10.6837 11.2792,10.29598 5.1869,-1.20444 19.724,-0.96881 25.7132,0.4168 14.2503,3.2968 21.4381,11.66447 22.1519,25.78779 0.1869,3.69876 0.5904,7.86121 0.8966,9.24987 0.4786,2.17062 -0.1049,1.83084 -4.1618,-2.42201 l -4.7187,-4.94687 -14.7033,-0.60108 -14.7035,-0.60108 -0.4988,12.74026 -0.4988,12.74026 5.4318,4.22539 c 5.3334,4.14891 5.3795,4.22951 2.5486,4.45311 -1.5856,0.12525 -7.8217,-0.14985 -13.8579,-0.61135 -12.0484,-0.9211 -15.052,-2.11263 -24.3375,-9.65469 -6.2529,-5.07883 -7.8178,-10.80918 -6.5779,-24.08676 l 0.8631,-9.2417 -9.0489,-8.66723 c -4.9769,-4.76698 -9.2885,-8.58577 -9.5813,-8.48622 -0.2928,0.0996 -12.1447,14.02708 -26.3374,30.95005 -14.1929,16.92296 -26.1503,31.10357 -26.5722,31.51245 -0.4218,0.40887 -6.79676,-2.42281 -14.16656,-6.29263 l -13.4006,-7.03605 -0.2025,4.95458 c -0.1114,2.72503 -0.5398,4.94267 -0.9521,4.9281 -0.4122,-0.0149 -9.563,0.73543 -20.335,1.66663 -10.7721,0.9312 -19.698,1.69037 -19.8355,1.68704 -0.1375,-0.004 -0.204,-1.13011 -0.1478,-2.50396 l 0.1021,-2.49792 -14.2373,-0.60274 -14.23728,-0.60274 -8.56441,-8.35429 c -4.71035,-4.59486 -8.75505,-8.17851 -8.98822,-7.96367 -0.35568,0.32774 1.18153,8.85418 2.68675,14.90225 0.43066,1.73073 0.78897,1.66208 -14.96834,2.86801 -4.34968,0.33288 -4.7614,0.18105 -4.68339,-1.72712 0.0785,-1.92165 -0.47742,-2.11519 -6.82074,-2.3745 -6.07421,-0.24832 -19.07462,1.11117 -24.32133,2.54334 -1.43308,0.39119 -2.41969,-0.77647 -4.58187,-5.42265 -3.00591,-6.4592 -3.70963,-6.16991 -1.60896,0.66141 0.73399,2.38693 1.19521,4.46822 1.02495,4.62512 -0.17027,0.15689 -4.4992,0.62172 -9.61983,1.03295 -5.78001,0.46418 -12.03727,1.74396 -16.50218,3.37511 -3.95556,1.44508 -7.3549,2.62075 -7.55409,2.61261 -0.19919,-0.008 -0.30517,-1.40883 -0.23552,-3.11264 l 0.12664,-3.09784 -12.7549,-0.14065 c -13.50617,-0.14893 -15.92888,0.42918 -26.1535,6.24073 l -4.22844,2.40341 0.18625,-22.53996 0.18627,-22.53996 -10.28418,-0.42042 -10.28419,-0.42042 5.76035,15.433 c 3.16819,8.48816 5.54846,15.62825 5.28949,15.86688 -1.01171,0.93224 -57.15098,27.74039 -57.43836,27.4285 -0.1681,-0.18243 0.50953,-2.26994 1.50584,-4.63891 0.99632,-2.36897 2.08336,-5.47159 2.41564,-6.89471 l 0.60417,-2.58749 -7.41314,1.56663 c -5.98749,1.26535 -11.64185,1.4276 -29.40195,0.8437 -25.10455,-0.82536 -34.16118,-2.54672 -40.03874,-7.61004 -8.44702,-7.2768 -6.60416,-6.77274 -17.65683,-4.82954 -6.01816,1.05808 -13.07555,3.16364 -17.93144,5.34982 -4.40407,1.98276 -8.19894,3.39717 -8.43305,3.14311 -1.64025,-1.78008 -5.4847,-23.93954 -5.67794,-32.72774 -0.1246,-5.66727 -0.52852,-10.50825 -0.89757,-10.75772 -0.36906,-0.24948 -1.87528,4.09644 -3.34715,9.65761 -1.47188,5.56117 -4.20862,14.32343 -6.08165,19.47169 l -3.40551,9.36047 -9.48711,-21.06561 c -8.65221,-19.21175 -10.8465,-23.24349 -12.04788,-22.13648 -0.2273,0.20945 0.92256,10.97671 2.55524,23.92723 1.63269,12.95053 2.84151,23.66345 2.68628,23.80648 -0.15523,0.14304 -4.71788,0.57192 -10.13922,0.95308 -6.22624,0.43774 -11.92641,1.50885 -15.47522,2.90794 -8.83628,3.48362 -16.48312,4.74976 -26.2697,4.34968 l -9.05278,-0.37008 -0.46977,-3.27192 c -0.25838,-1.79955 -1.78381,-12.78353 -3.38987,-24.40883 -2.56971,-18.60068 -3.02925,-20.63811 -3.82981,-16.97988 -2.92157,13.35044 -15.81459,27.88083 -30.34403,34.19759 -10.63385,4.62313 -16.98156,5.5486 -30.34097,4.42355 -11.98829,-1.00958 -18.20672,-3.08363 -26.52094,-8.84562 -5.44755,-3.77531 -5.84618,-3.86978 -5.12114,-1.21361 0.51269,1.87822 0.0971,2.00589 -5.7597,1.76966 -17.52682,-0.70649 -41.58062,1.59909 -102.59717,9.83574 l -27.96996,3.77569 -5.31395,-2.88121 c -3.52079,-1.90896 -5.58259,-3.7556 -6.11006,-5.47248 -0.43786,-1.42519 -3.08925,-10.11621 -5.89196,-19.31337 -2.80272,-9.19716 -5.2646,-16.93443 -5.47085,-17.19395 -0.20624,-0.25952 -1.8494,0.22437 -3.65145,1.07532 -3.07511,1.4521 -12.7715,5.21525 -13.37447,5.1906 -0.65495,-0.0268 -7.41334,-12.8686 -12.68038,-24.09438 -3.14503,-6.70307 -8.4064,-17.14474 -11.69194,-23.20369 -13.00979,-23.9917 -28.58064,-62.52279 -42.57495,-105.354518 l -7.0563,-21.596896 -4.81057,13.105094 c -17.34208,47.2438 -35.200518,111.28492 -38.367758,137.58831 -0.57712,4.79293 -1.39612,8.70023 -1.82001,8.6829 -0.42388,-0.0173 -1.15225,2.54256 -1.6186,5.68864 -5.21336,35.17062 -6.66859,45.313 -8.04574,56.0758 -2.3881,18.66357 -2.79968,18.25604 8.7382,8.6522 10.8253,-9.01069 28.293668,-19.94926 41.151678,-25.76889 16.55551,-7.49313 37.90441,-12.42955 51.3737,-11.87892 9.11881,0.37278 10.49183,1.42181 11.25477,8.59909 l 0.49497,4.6563 -6.9906,3.40027 c -3.84483,1.87015 -8.45044,3.59345 -10.2347,3.82955 -2.84689,0.37672 -3.44577,0.0387 -4.8913,-2.76095 -1.44946,-2.80721 -2.17215,-3.21243 -6.01952,-3.37529 -7.94504,-0.3363 -22.34343,3.02322 -32.96548,7.6917 -12.16092,5.34482 -22.9897,13.10666 -37.117688,26.60518 -14.30519,13.66781 -18.42203,20.44013 -21.44664,35.28028 -0.72294,3.54706 -1.2222,3.94434 -9.86931,7.85343 -5.00931,2.26455 -9.27195,4.11066 -9.47254,4.10246 -0.20058,-0.008 -1.12145,-0.92308 -2.04637,-2.03307 z m 11.05875,-2.82381 c 8.04909,-3.5901 8.72729,-4.12295 9.38396,-7.37285 2.96179,-14.65843 7.15458,-21.45615 21.91303,-35.52743 14.678198,-13.99477 25.381558,-21.69671 37.637658,-27.08336 10.86482,-4.77517 25.03371,-8.02227 33.49606,-7.67633 4.5301,0.18519 4.97958,0.43185 5.91177,3.24418 1.35146,4.07726 3.67911,4.03839 13.03654,-0.21769 l 7.57116,-3.44362 -0.47665,-4.52324 c -0.69388,-6.58469 -1.35069,-7.06107 -10.2362,-7.42431 -9.3595,-0.38262 -18.92671,1.11548 -32.80292,5.13647 -19.98185,5.79028 -42.35593,18.01857 -60.273028,32.9415 l -10.36113,8.62967 -0.20055,-3.18995 c -0.28082,-4.46668 2.6429,-26.63702 9.48017,-71.88733 0.41331,-2.7354 1.13533,-5.42074 1.60448,-5.96742 0.46916,-0.54668 1.30322,-4.56597 1.85348,-8.93174 2.29455,-18.20519 14.08228,-64.3735 25.155898,-98.526735 7.04388,-21.724735 18.53428,-53.630613 19.09505,-53.02204 0.20339,0.220732 4.12981,11.785582 8.72538,25.699656 4.59556,13.914082 10.89191,32.062404 13.99188,40.329609 6.81856,18.18414 21.06431,50.49824 26.60481,60.34857 2.21832,3.9439 7.31315,14.06044 11.32183,22.48121 4.00868,8.42077 8.59545,17.61579 10.19281,20.43339 1.59737,2.8176 2.96392,5.23752 3.03678,5.3776 0.38924,0.74833 12.4403,-4.36182 15.39548,-6.52834 l 3.45362,-2.53194 -3.65982,-8.0861 c -2.0129,-4.44734 -9.71379,-20.0899 -17.1131,-34.76124 -7.3993,-14.67134 -15.45754,-31.11672 -17.9072,-36.5453 C 177.20259,114.78083 153.4001,46.857589 147.74525,26.850693 142.37273,7.8427443 139.61182,5.6945593 127.63968,11.207103 c -4.055,1.867107 -8.17726,4.326222 -9.16057,5.464697 -0.98332,1.138465 -2.89021,5.627883 -4.23754,9.976479 -1.34732,4.348596 -7.51154,22.7872 -13.69826,40.974674 -12.867138,37.826317 -18.913618,57.016327 -24.002378,76.177607 -4.9062,18.47387 -10.97435,45.964 -11.16261,50.56923 -0.0855,2.09077 -0.64781,4.07858 -1.24964,4.41737 -0.60185,0.3388 -0.85908,1.31269 -0.57163,2.16422 0.28744,0.85154 0.1066,2.03712 -0.40187,2.63464 -0.81986,0.96343 -4.22314,20.34674 -3.9051,22.24142 0.0689,0.41064 -0.1664,1.41026 -0.52295,2.22138 -0.35655,0.81111 -1.42427,7.5231 -2.37271,14.91553 -0.94843,7.39243 -2.11473,14.10669 -2.59175,14.92059 -0.47702,0.81389 -0.58184,3.50556 -0.23292,5.98147 0.36028,2.5564 0.21202,5.21887 -0.34305,6.16139 -0.53763,0.91285 -1.0971,4.5853 -1.24327,8.16101 -0.14618,3.57571 -0.75929,6.77911 -1.36247,7.11866 -0.67594,0.38051 -0.90365,2.13504 -0.59355,4.57317 0.27673,2.1757 0.0428,4.48439 -0.51984,5.13043 -1.59856,1.8355 -3.89082,30.9474 -2.64035,33.53253 0.57127,1.18098 1.24105,2.15551 1.48841,2.16562 0.24736,0.0101 4.354,-1.72301 9.12588,-3.8514 z M 281.77533,250.27687 c 18.81775,-2.49826 37.92906,-4.95274 42.46959,-5.45437 4.54053,-0.50165 8.68849,-1.1569 9.21767,-1.45612 0.87161,-0.49286 -15.80088,-99.11882 -16.97036,-100.38799 -0.50473,-0.54776 -45.74132,-5.57502 -46.16731,-5.1307 -0.13652,0.14238 4.08359,19.55471 9.37801,43.1385 7.25985,32.33869 9.31505,43.06269 8.36039,43.62431 -4.33979,2.55306 -14.55419,2.98128 -21.06536,0.88311 -5.11826,-1.64931 -10.22009,-6.76624 -11.21554,-11.24872 -0.45135,-2.03239 -1.28639,-20.1068 -1.85564,-40.16537 -0.56926,-20.05857 -1.19881,-36.6479 -1.39903,-36.86517 -0.35252,-0.38257 -45.96665,-0.29723 -46.29509,0.0866 -0.0898,0.10485 2.04786,9.29843 4.75014,20.43018 2.87904,11.85982 5.08737,23.54791 5.33378,28.23025 0.31568,5.99874 1.16768,9.64575 3.41772,14.62985 2.11437,4.68357 2.70421,7.06935 2.00249,8.09972 -0.70012,1.02803 0.80524,7.31399 5.08306,21.22534 l 6.07777,19.76475 4.81461,2.93868 c 3.02743,1.84784 5.749,2.80147 7.33181,2.56906 1.38446,-0.20329 17.91354,-2.41366 36.73129,-4.91193 z m 221.41636,5.46146 c 3.18964,-0.68883 8.32693,-2.24889 11.4162,-3.46681 3.44474,-1.35804 9.21119,-2.46759 14.91138,-2.86914 5.11198,-0.36011 9.41813,-0.77847 9.56922,-0.92969 0.15108,-0.15121 -1.06102,-10.86111 -2.69357,-23.79977 -1.63255,-12.93866 -2.75423,-23.72207 -2.49263,-23.96312 2.05476,-1.89336 4.94994,2.75787 13.25308,21.29165 l 9.14422,20.41117 2.36406,-6.17255 c 1.30025,-3.39489 4.34108,-13.21641 6.7574,-21.82559 2.41632,-8.60918 4.53407,-15.5003 4.70609,-15.31361 0.17203,0.18668 0.55152,6.65133 0.84332,14.36587 0.4423,11.69343 2.49958,25.42894 5.16835,34.50675 0.26995,0.91821 2.51848,0.31058 7.79657,-2.10694 4.20004,-1.92374 11.71998,-4.19649 17.33726,-5.23983 5.45602,-1.0134 10.13103,-2.03695 10.3889,-2.27458 0.25787,-0.23761 0.23724,-6.19485 -0.0458,-13.23829 -0.70302,-17.49289 0.64824,-46.90199 4.19905,-91.38888 1.64225,-20.57509 3.03455,-38.353455 3.094,-39.507465 0.0595,-1.15402 2.38456,-4.887162 5.16689,-8.295879 9.25405,-11.33742 13.97001,-17.949449 14.98445,-21.008996 l 1.00399,-3.028048 -6.04974,2.090065 c -10.5501,3.644871 -36.49742,6.719219 -56.29556,6.670131 l -17.65371,-0.04377 -1.2365,15.609581 c -0.68006,8.585266 -1.83685,23.376541 -2.57064,32.869491 -0.73379,9.49294 -1.47231,17.10998 -1.64115,16.92674 -0.16885,-0.18324 -0.80497,-5.97405 -1.41361,-12.86847 -0.8501,-9.62985 -2.42866,-17.34488 -6.81048,-33.285619 -3.13714,-11.412665 -5.98271,-21.075189 -6.3235,-21.472271 -0.34078,-0.397081 -14.0187,2.042305 -30.39537,5.420851 -16.80609,3.46714 -33.33022,6.296745 -37.9361,6.496199 -7.69689,0.33331 -8.37315,0.554212 -11.90735,3.889447 l -3.74701,3.53607 6.50376,46.774273 c 4.2822,30.79701 7.19042,48.494 8.51398,51.80891 1.37647,3.44738 2.12129,8.21081 2.36251,15.10911 0.28232,8.07408 4.38371,42.0666 6.34706,52.60481 0.39808,2.1367 0.92361,2.28964 9.0022,2.6199 4.71869,0.1929 11.18914,-0.21286 14.37878,-0.90169 z m 218.93662,-5.10608 c 14.59842,-7.00773 26.64941,-12.80061 26.77999,-12.87308 0.13057,-0.0724 -2.39368,-7.18091 -5.60945,-15.79654 -3.21578,-8.61564 -5.84187,-15.78706 -5.83576,-15.93651 0.006,-0.14944 5.12455,-0.0627 11.37431,0.19281 l 11.36321,0.46453 -0.16708,22.01155 c -0.0919,12.10635 0.0552,22.02063 0.32695,22.03174 0.2717,0.0111 3.09814,-1.4276 6.28098,-3.19713 8.18349,-4.54967 13.09595,-5.27352 28.70663,-4.22987 l 13.48293,0.90139 -4.49254,-9.19118 -4.49255,-9.19117 -0.40485,-16.02992 c -0.77193,-30.56481 -0.39932,-93.1359 0.60479,-101.56005 0.86197,-7.23161 1.62415,-9.515335 5.22801,-15.664405 3.21886,-5.492206 3.79284,-7.050692 2.42139,-6.574773 -20.97117,7.277523 -35.36241,11.007043 -48.48642,12.565353 -11.39752,1.35331 -10.76665,-0.10094 -9.8675,22.746255 0.424,10.77356 1.45668,23.85593 2.29485,29.07192 0.83817,5.216 1.8716,13.40316 2.29652,18.19369 0.42491,4.79054 1.55438,11.32506 2.5099,14.52119 0.95553,3.19613 1.68241,7.15464 1.61528,8.7967 l -0.12205,2.98556 -6.71833,-0.91268 c -3.69508,-0.50197 -7.90148,-0.96424 -9.34756,-1.02727 -2.58705,-0.11277 -2.63435,-0.25533 -2.94795,-8.88494 -0.72843,-20.04464 -7.30813,-70.23256 -9.57002,-72.99717 -0.61508,-0.75178 -48.77993,-8.94934 -49.37271,-8.40313 -0.64184,0.59142 3.34997,16.48758 7.02757,27.98519 7.02486,21.96244 11.31734,45.23882 12.18099,66.05267 1.615,38.92121 1.08846,49.44836 -2.9974,59.92758 -1.88558,4.83604 -2.49463,7.73507 -1.51969,7.23363 0.50324,-0.25884 12.85914,-6.20421 27.45756,-13.21194 z m -292.41797,-0.89926 c 25.12136,-5.45819 42.97901,-26.80824 42.60305,-50.93486 -0.0962,-6.17131 -0.76481,-9.14796 -3.49572,-15.56228 -8.32001,-19.54191 -25.19801,-30.89116 -47.38592,-31.86366 -11.29218,-0.49495 -18.10671,0.74992 -27.73005,5.06561 -8.67526,3.8905 -15.94021,9.06141 -20.53334,14.61486 -6.42743,7.77125 -6.39375,5.57116 -0.56489,36.90375 2.92268,15.7106 5.30761,28.80598 5.29985,29.10083 -0.008,0.29482 0.97342,1.08174 2.1804,1.74866 1.20697,0.66691 4.63692,2.70843 7.62209,4.53668 2.98518,1.82827 7.84719,4.08177 10.80447,5.00776 7.12543,2.23117 23.87789,2.97357 31.20006,1.38265 z m -28.62808,-14.21225 c -12.33771,-4.01537 -21.67997,-12.65821 -25.21762,-23.32969 -6.77148,-20.42644 9.69803,-43.52612 33.49154,-46.97426 19.04613,-2.76017 35.70724,5.67056 42.78718,21.65084 3.03654,6.85386 2.51745,20.6526 -1.03893,27.6173 -5.1353,10.05681 -14.4377,17.65942 -25.60185,20.92372 -7.34941,2.14891 -18.01157,2.19785 -24.42032,0.11209 z m 24.46117,-1.11125 c 11.09948,-3.2454 19.52592,-10.11325 24.60569,-20.05453 3.49056,-6.83114 4.01157,-20.7213 1.02945,-27.44648 -5.27791,-11.90268 -15.06428,-18.99599 -28.50579,-20.66141 -24.39597,-3.02271 -44.75671,11.34544 -47.003,33.16903 -2.53192,24.59874 23.34005,42.75158 49.87362,34.99339 z M 406.8137,220.0101 c 0.48169,-4.88109 0.70223,-5.24699 3.27708,-5.43711 2.71901,-0.20075 2.7572,-0.11998 2.53326,5.35795 -0.22626,5.5348 -0.24215,5.56117 -3.27708,5.4371 l -3.04971,-0.12467 z m 4.80846,-0.0536 c 0.15658,-3.83013 -0.11224,-4.50835 -1.81452,-4.57794 -1.70228,-0.0696 -2.02556,0.58442 -2.18214,4.41455 -0.15658,3.83013 0.11225,4.50835 1.81452,4.57794 1.70228,0.0696 2.02557,-0.58442 2.18214,-4.41455 z m 6.52028,0.58531 c -0.7292,-2.88202 -1.31996,-5.38323 -1.31281,-5.55826 0.007,-0.17503 1.08202,-0.27453 2.38859,-0.22112 3.07723,0.1258 4.17054,1.70371 4.8173,6.95257 0.5047,4.09588 0.42002,4.27072 -2.02024,4.17096 -2.20441,-0.0901 -2.72538,-0.809 -3.87284,-5.34415 z m 4.85353,0.63028 c -0.67124,-4.84518 -0.9351,-5.29261 -3.1751,-5.38419 -1.66419,-0.068 -1.76748,0.32074 -0.98642,3.71281 1.11271,4.83247 1.39731,5.31151 3.19939,5.38518 1.17014,0.0478 1.37416,-0.73968 0.96213,-3.7138 z m -13.04163,-9.3821 c -4.67606,-2.21841 -7.23735,-6.297 -7.0367,-11.20521 0.2049,-5.01236 3.12282,-8.79607 8.19992,-10.63295 4.83092,-1.74782 7.77698,-1.62738 12.44912,0.50892 4.91022,2.24517 7.50956,6.25443 7.30465,11.26679 -0.20491,5.01236 -3.12282,8.79607 -8.19992,10.63296 -4.72107,1.70807 -8.24766,1.54986 -12.71707,-0.57052 z m 12.30334,-0.26809 c 5.161,-1.93987 7.4247,-4.91172 7.63359,-10.0216 0.15424,-3.77287 -0.30036,-4.94194 -2.90323,-7.46622 -8.26668,-8.01705 -22.65284,-3.92423 -23.08171,6.56668 -0.35604,8.70932 9.16355,14.37456 18.35135,10.92114 z m -70.60743,31.00381 c 8.00071,-0.46591 17.34631,-0.74603 20.76801,-0.62251 6.12555,0.22119 6.20891,0.18766 5.41871,-2.17737 -0.4414,-1.32107 -4.17073,-20.72709 -8.28739,-43.1245 -4.11667,-22.3974 -7.67587,-41.69042 -7.90937,-42.87339 -0.41743,-2.11495 -0.12241,-2.15077 17.66907,-2.14517 l 18.09359,0.006 0.77137,-18.86916 0.77138,-18.86915 -20.49405,-0.8378 -20.49404,-0.8378 4.40195,-7.9303 c 2.42106,-4.361665 4.25867,-8.085775 4.08358,-8.275805 -0.1751,-0.19003 -11.36062,0.0608 -24.8567,0.55731 -13.49608,0.49655 -25.55056,0.87555 -26.78774,0.84221 -1.23717,-0.0334 -2.26404,0.29751 -2.28193,0.73518 -0.0179,0.43767 2.2959,3.786345 5.14176,7.441485 2.84585,3.65515 5.07,6.7418 4.94256,6.85924 -0.12746,0.11744 -11.70327,0.24024 -25.72404,0.27289 -25.53201,0.0595 -30.34956,0.34677 -29.85981,1.78073 0.14431,0.42256 5.47195,5.53698 11.8392,11.36537 l 11.57681,10.59708 14.69885,0.6089 14.69885,0.6089 0.8234,3.78679 c 0.45288,2.08274 1.15104,5.37651 1.55148,7.31948 l 0.72808,3.53269 7.67105,0.6059 c 4.21907,0.33325 7.65993,0.92429 7.64636,1.31342 -0.0139,0.38913 0.90865,16.27567 2.04936,35.3034 l 2.07404,34.59589 -2.88558,8.40685 c -1.58707,4.62377 -3.09671,8.9612 -3.35477,9.63872 -0.25807,0.67753 -0.14553,1.23172 0.25001,1.23153 0.39555,5.6e-4 7.26524,-0.3808 15.26595,-0.84671 z m 337.71557,9.41558 c 8.07588,-1.61831 9.28526,-3.22996 9.70321,-12.93075 0.56953,-13.21918 -1.16216,-14.30144 -23.1592,-14.47392 -8.66925,-0.068 -16.73232,0.14497 -17.91792,0.47321 -1.91923,0.53135 -2.3592,-0.0985 -4.01183,-5.74302 -1.0209,-3.48691 -1.7028,-6.48118 -1.51531,-6.65393 1.15424,-1.06359 23.22689,-2.34455 33.45794,-1.9417 l 12.18294,0.47973 0.0893,-6.89329 c 0.0491,-3.7913 -0.18293,-6.49624 -0.51563,-6.01095 -0.33269,0.48527 -1.00319,-2.61565 -1.48999,-6.89096 -2.55005,-22.39581 -23.50841,-37.34196 -48.04075,-34.25955 -9.22368,1.15893 -16.36632,4.38824 -26.61154,12.03151 l -8.08977,6.03524 -0.51021,27.50211 c -0.66501,35.8459 -0.67915,35.73685 5.32928,41.11569 4.93934,4.42179 9.08434,5.96315 21.74307,8.08537 9.37568,1.57182 41.64258,1.62099 49.35644,0.0752 z m -41.55659,-56.60801 c -1.60665,-4.8822 -3.09305,-9.4138 -3.30311,-10.07022 -0.6582,-2.05671 7.7911,-2.32004 12.57005,-0.39176 8.2678,3.33601 12.49506,8.45768 13.96204,16.91618 l 0.56816,3.27594 -10.43798,-0.42671 -10.438,-0.42671 z m 22.17004,5.91049 c -1.03389,-5.2342 -3.90352,-10.21802 -7.09843,-12.32818 -4.87817,-3.2219 -10.35502,-4.91559 -14.12188,-4.36711 l -3.40009,0.49506 2.09984,6.30656 c 4.47617,13.44346 2.70437,11.83588 13.53279,12.27854 l 9.53584,0.38983 z m 138.88605,45.3582 c 0.0248,-0.60742 -3.3866,-1.99123 -5.16868,-2.09661 -0.41183,-0.0248 -0.79317,1.04073 -0.84738,2.36685 -0.0926,2.26434 0.0867,2.34971 2.94518,1.40223 1.67406,-0.55489 3.05596,-1.30749 3.07088,-1.67247 z m 11.60894,-2.43 c 2.76792,-0.38215 7.14123,-0.87718 9.71847,-1.10006 l 4.68589,-0.40525 -3.42806,-11.7771 c -1.88543,-6.47741 -3.29203,-11.90245 -3.12577,-12.05565 0.16625,-0.1532 2.74246,5.21009 5.72491,11.91842 3.98089,8.95411 5.83512,12.09086 6.97408,11.79789 5.88898,-1.51479 13.08975,-2.3155 22.36736,-2.48721 l 10.73031,-0.19859 -10.16085,-17.04614 c -5.58847,-9.37537 -13.08711,-23.19319 -16.66365,-30.70627 -6.40421,-13.453 -6.52002,-13.85054 -7.63712,-26.21695 -0.62878,-6.9607 -0.77345,-14.88374 -0.32461,-17.77809 0.44532,-2.87171 0.44554,-5.23617 4.7e-4,-5.25437 -0.44506,-0.0182 -6.07818,2.72353 -12.51804,6.09273 -6.43987,3.3692 -15.04107,7.85912 -19.11379,9.9776 l -7.40494,3.8518 0.35277,9.52235 c 0.19403,5.2373 0.14587,14.01766 -0.10702,19.51191 -0.29787,6.47095 -0.14721,8.94477 0.42768,7.02334 0.51023,-1.70537 0.5531,1.69981 0.10085,8.0108 -0.54826,7.65085 -0.48833,9.62453 0.19786,6.51352 0.75915,-3.44191 0.83646,-2.40792 0.33776,4.51756 -0.36681,5.09398 -0.27746,7.91324 0.20649,6.51387 0.74817,-2.1635 0.84661,-2.00569 0.79969,1.28204 -0.0333,2.3332 1.42632,6.84794 3.86464,11.95372 3.58266,7.50198 4.13409,8.16288 6.4401,7.71871 1.38707,-0.26716 4.7866,-0.79842 7.55452,-1.18058 z m -1.00928,-47.17643 c -1.18914,-6.20084 -1.98288,-11.43938 -1.76386,-11.6412 0.21902,-0.20181 2.29037,4.52407 4.60302,10.50197 2.31263,5.97791 4.08853,10.95835 3.94642,11.06768 -0.1421,0.10931 -1.24053,0.45684 -2.44093,0.77228 -2.0492,0.53849 -2.31468,-0.11534 -4.34465,-10.70073 z m 3.61844,3.42785 c -3.55156,-9.02999 -3.84685,-8.38336 -1.36013,2.97849 0.55795,2.54929 1.26836,3.59325 2.22538,3.27021 1.12748,-0.3806 0.95619,-1.61763 -0.86525,-6.2487 z m 135.29752,46.40301 c 8.7822,-0.73147 16.131,-1.48047 16.3306,-1.66446 0.1997,-0.18397 0.2075,-12.9143 0.017,-28.28962 -0.1902,-15.37532 -0.3273,-28.53774 -0.3046,-29.24983 0.052,-1.63393 -4.7464,-1.02102 -14.5248,1.85523 -4.7427,1.39507 -9.3051,1.97122 -14.0844,1.7786 l -7.069,-0.28498 -1.4657,29.01113 -1.4658,29.01114 3.2994,-0.41866 c 1.8146,-0.23026 10.4848,-1.01713 19.2669,-1.74861 z m -72.1846,-3.47222 4.65378,-0.39159 -1.95738,-9.26038 c -1.07656,-5.09321 -1.84694,-9.36206 -1.71215,-9.48634 0.13489,-0.12427 4.56137,3.97184 9.83651,9.10246 l 9.59138,9.32842 14.12596,0.60099 14.126,0.60099 1.5963,-22.20333 c 1.2626,-17.56271 1.3755,-25.03627 0.5405,-35.75776 -0.5806,-7.45493 -1.2195,-15.81301 -1.4198,-18.57349 -0.7214,-9.94725 -2.6434,-19.12977 -4.2839,-20.46689 -1.2048,-0.98203 -5.6885,-1.43447 -16.67172,-1.68238 l -15.02359,-0.33915 -0.24298,13.50134 c -0.1777,9.87755 0.55447,19.89399 2.72796,37.31869 1.634,13.09954 2.95867,24.11724 2.94369,24.48379 -0.0254,0.62082 -4.15245,-3.01434 -12.78683,-11.26286 l -3.59878,-3.43793 -2.04469,-26.47539 -2.04469,-26.4754 2.7073,-2.31203 c 3.35296,-2.86348 3.59023,-4.65001 0.52142,-3.9265 -9.64013,2.27272 -33.59677,5.23684 -40.15762,4.96863 -9.13663,-0.37351 -8.43098,-1.93543 -6.89994,15.27245 1.03092,11.58702 1.28241,12.46363 7.10621,24.76939 3.32061,7.01649 10.71686,20.68095 16.43611,30.36548 8.42221,14.26149 10.96623,17.81767 13.38493,18.71024 l 2.98628,1.10203 -3.75105,-0.0512 c -2.68925,-0.0367 -3.76912,0.39041 -3.81484,1.5088 -0.0665,1.62603 -0.4594,1.61199 13.12563,0.46892 z m 143.02446,-24.67223 c 14.0315,-16.76586 26.037,-31.01168 26.6789,-31.65738 0.896,-0.90136 3.4262,1.00725 10.895,8.21872 l 9.7277,9.39272 -0.8652,9.26518 c -1.1957,12.80399 0.4227,19.05057 6.105,23.56331 8.6151,6.84204 12.1239,8.24234 22.8508,9.11931 5.4862,0.44854 11.1055,0.70264 12.4873,0.56463 2.3634,-0.23597 2.2393,-0.46489 -2.094,-3.86152 l -4.6064,-3.61069 0.5445,-13.31935 0.5445,-13.31936 15.1994,0.62136 15.1995,0.62136 4.0405,4.30329 4.0405,4.30329 -0.7417,-3.91823 c -0.408,-2.15502 -0.6816,-5.65423 -0.6079,-7.776 0.082,-2.38122 -0.9886,-6.18816 -2.7986,-9.94626 -3.397,-7.05339 -7.8541,-10.14797 -18.1777,-12.62095 -5.882,-1.409 -20.454,-1.65264 -25.7204,-0.43003 -1.6845,0.39105 -3.9886,-1.72623 -11.7639,-10.81009 l -9.6692,-11.29639 17.1179,-18.15427 17.1181,-18.15427 -7.9377,-17.67902 c -4.3658,-9.72347 -8.1696,-17.662735 -8.453,-17.642815 -0.2833,0.0199 -9.937,10.870085 -21.4526,24.111435 -17.921,20.60659 -21.1554,23.89148 -22.45,22.79997 -2.5974,-2.18978 -24.6072,-21.98974 -26.1202,-23.49757 -1.111,-1.10714 -1.3345,-3.97853 -0.9844,-12.64289 0.425,-10.394135 0.2655,-11.582375 -2.1238,-16.319935 -3.8279,-7.590168 -10.2637,-14.597466 -14.7282,-16.035972 -5.1271,-1.652021 -30.77206,-2.660362 -33.63546,-1.322482 -1.2258,0.572708 -5.3515,2.919707 -9.1684,5.215549 -5.8901,3.542978 -7.5843,5.232276 -11.2024,11.170287 -3.9821,6.535648 -4.2853,7.530428 -4.6079,15.116593 -0.3836,9.01652 0.8753,13.66163 5.3805,19.85846 3.1477,4.32967 5.0564,4.77242 11.7286,2.72067 2.3869,-0.73399 4.4885,-1.17317 4.6703,-0.97594 0.1817,0.19723 -0.1724,2.55168 -0.7879,5.23208 -0.615,2.68043 -0.9324,5.07508 -0.7054,5.32148 0.2271,0.24639 4.1085,0.78927 8.6254,1.20641 6.6161,0.61098 9.2805,0.39961 13.7063,-1.08715 l 5.4936,-1.84558 3.52256,2.8624 c 1.9376,1.57432 10.14,8.51008 18.2278,15.4128 l 14.705,12.55037 -2.4422,2.46304 c -5.9646,6.01537 -52.69456,53.90975 -55.28236,56.65986 -2.1858,2.3229 -2.9198,4.09869 -3.0543,7.38884 l -0.1771,4.33106 13.4697,7.13839 c 7.4083,3.92612 13.76156,7.07906 14.11846,7.00652 0.3568,-0.0725 12.1291,-13.84939 26.1605,-30.61525 z m -44.18766,-97.185 c -0.9514,-2.33486 -1.3285,-2.57596 -2.0903,-1.33649 -0.5112,0.83175 -2.0026,1.46841 -3.3143,1.41479 -1.9505,-0.0797 -2.4183,-0.68103 -2.5677,-3.30002 -0.1522,-2.6673 -0.7198,-3.36436 -3.3959,-4.17078 -3.5597,-1.07271 -3.6448,-1.23419 -2.064,-3.91821 0.9433,-1.60172 0.6338,-2.09791 -2.1134,-3.38808 l -3.2186,-1.51153 2.8243,-1.19204 2.8242,-1.19205 -2.4777,-2.80721 -2.4777,-2.807235 2.6316,-0.54727 c 2.3826,-0.49553 2.5834,-0.87769 2.1226,-4.041922 -0.5582,-3.833793 -7e-4,-4.112412 3.649,-1.823417 3.5412,2.221029 3.9197,2.044529 4.0811,-1.90299 l 0.1458,-3.565112 2.8047,2.175056 2.8045,2.175062 1.8752,-2.621595 1.8751,-2.621585 1.3998,2.307428 1.3997,2.307429 2.9126,-2.570635 2.9125,-2.57065 1.1104,2.726989 c 1.0321,2.535063 1.42266,2.693118 5.54876,2.245801 l 4.4384,-0.481198 -1.7536,3.076169 c -1.5964,2.80055 -1.6137,3.13648 -0.1933,3.74929 1.1352,0.48968 1.3616,1.42973 0.8306,3.44931 -0.5711,2.172495 -0.2883,3.036145 1.3,3.971605 1.6837,0.99159 1.8284,1.53726 0.8492,3.20004 -0.6494,1.10253 -0.964,3.04605 -0.6993,4.31893 0.3627,1.74428 -0.014,2.42239 -1.5287,2.75309 -1.3551,0.29579 -2.0446,1.28324 -2.116,3.03022 -0.079,1.92535 -0.6196,2.57046 -2.1042,2.50977 -1.3989,-0.0572 -2.0256,0.58441 -2.0891,2.13867 l -0.091,2.22037 -2.13086,-2.31257 -2.131,-2.31258 -1.8141,3.17993 -1.8141,3.17995 -1.158,-2.84112 -1.158,-2.84111 -2.3393,2.69814 -2.3393,2.69814 -1.1609,-2.84878 z m 7.1441,-1.42828 1.1709,2.4206 1.5588,-2.70054 c 1.4955,-2.59101 1.6337,-2.62683 3.4093,-0.88293 1.68876,1.65876 1.85636,1.67309 1.91806,0.16399 0.04,-0.98751 0.8725,-1.62071 2.0659,-1.57192 1.4507,0.0593 2.0256,-0.58442 2.0977,-2.34889 0.062,-1.50919 0.8273,-2.62929 2.0197,-2.95475 1.2644,-0.34514 1.78,-1.16678 1.5096,-2.40551 -0.2259,-1.03473 0.1135,-2.77645 0.7606,-3.87022 0.9823,-1.66778 0.8364,-2.11051 -0.9036,-2.7421 -1.6746,-0.60782 -1.9419,-1.3017 -1.385,-3.594625 0.4859,-2.00052 0.2329,-3.12237 -0.8547,-3.79077 -1.2329,-0.7577 -1.303,-1.35991 -0.3471,-2.983024 1.787,-3.034023 1.5679,-3.301384 -2.249,-2.745616 -3.09866,0.451176 -3.62086,0.204492 -4.58636,-2.167025 l -1.0897,-2.676164 -2.8205,2.48951 -2.8207,2.489505 -1.3902,-2.168173 -1.3902,-2.168164 -1.7636,2.465702 c -1.6891,2.361575 -1.8652,2.393061 -4.1687,0.745466 l -2.405,-1.720243 -0.1485,3.632296 -0.1485,3.63231 -3.9665,-2.23225 -3.9665,-2.23224 0.4998,3.4324 c 0.4365,2.99751 0.2061,3.49653 -1.8186,3.93849 l -2.3184,0.50607 2.2025,2.545165 2.2024,2.54516 -2.3905,1.15636 -2.3907,1.15637 2.7733,1.05209 c 2.0158,0.76479 2.58,1.49366 2.0659,2.66906 -1.3161,3.00914 -1.1374,3.38806 2.0793,4.40606 2.7064,0.85649 3.1921,1.48295 3.0898,3.98517 -0.1394,3.41178 2.2985,4.17949 4.4978,1.4163 1.2319,-1.54779 1.4372,-1.45362 2.495,1.14431 l 1.1526,2.83088 2.2913,-2.64437 2.2914,-2.64438 z m -293.30444,99.62068 0.30635,-7.49374 -12.74017,-0.501 c -11.2967,-0.4442 -19.54876,-0.0946 -30.00524,1.27133 l -3.19801,0.41775 1.58309,5.28723 c 1.24194,4.14782 1.99092,5.23275 3.47553,5.03448 1.04085,-0.139 9.13854,-0.19693 17.99487,-0.12873 13.46581,0.1037 16.56733,0.40088 18.94167,1.81499 1.56159,0.93004 2.95092,1.71359 3.08741,1.7412 0.13648,0.0276 0.38601,-3.32196 0.5545,-7.44352 z m 306.7885,-24.98973 c 13.6913,-14.02747 25.9612,-26.58678 27.2664,-27.90957 l 2.3731,-2.40507 -16.0428,-13.6667 c -8.8236,-7.51668 -16.7919,-14.24121 -17.7071,-14.94339 -1.3401,-1.02803 -2.72986,-0.91742 -7.13556,0.5678 -4.5224,1.52463 -6.984,1.69879 -14.1943,1.00426 l -8.7229,-0.84023 -0.2525,6.1764 c -0.1389,3.39702 0.4467,11.10767 1.3012,17.13479 0.8545,6.02711 1.548,11.09647 1.5411,11.26524 -0.01,0.16877 -8.3829,-0.0353 -18.6135,-0.45356 l -18.6009,-0.76041 0.3948,6.77178 c 0.2171,3.72448 0.5854,8.24329 0.8183,10.0418 l 0.4235,3.27003 7.2075,0.29464 c 4.9701,0.20318 9.412,-0.35597 14.3088,-1.80119 3.9056,-1.15271 8.9403,-2.32976 11.1883,-2.61566 l 4.087,-0.51984 0.1467,11.83635 c 0.081,6.51 0.2662,15.38263 0.4121,19.71695 l 0.2655,7.8806 2.321,-2.27027 c 1.2767,-1.24863 13.5232,-13.74728 27.21426,-27.77475 z M 371.55748,171.75726 c 4.35888,-5.69001 12.62248,-11.94305 21.17206,-16.02083 l 6.12442,-2.92109 -18.01059,-0.10857 c -9.90583,-0.0597 -18.07928,-0.0417 -18.16322,0.0399 -0.40932,0.39823 4.12836,23.84009 4.61486,23.84051 0.30913,2.3e-4 2.22725,-2.17321 4.26247,-4.82994 z m 601.27556,-3.17038 c -0.2304,-0.97273 -1.0092,-6.23807 -1.7307,-11.70077 -1.2801,-9.69219 -0.5859,-25.55328 1.3061,-29.84361 0.6992,-1.58509 0.4606,-1.62221 -3.1971,-0.49748 -4.4637,1.37261 -35.9302,2.71339 -47.6463,2.03018 l -7.70308,-0.4492 1.35499,3.65599 c 2.52171,6.80353 7.81509,12.50043 11.76529,12.66192 5.2155,0.2132 6.9231,2.86255 8.2821,12.84901 0.678,4.98185 1.3649,9.62628 1.5264,10.32096 0.2212,0.95107 4.7604,1.44565 18.3774,2.00231 16.7432,0.68447 18.0526,0.60817 17.6649,-1.02931 z m -842.51773,58.19153 c -0.71308,-0.77386 -1.02906,-4.36663 -0.82439,-9.37333 0.25277,-6.1832 -0.30694,-10.63174 -2.34795,-18.66148 -3.08353,-12.13119 -6.00648,-19.11663 -13.32489,-31.84457 -5.29507,-9.20899 -7.55553,-14.80905 -7.48245,-18.53688 0.0434,-2.21406 5.6035,-5.27712 7.92805,-4.36758 0.69725,0.27282 2.8603,4.0147 4.80678,8.31531 3.9408,8.70689 8.63715,16.34779 21.14221,34.39811 6.89698,9.9554 8.61495,11.88127 9.26583,10.38714 0.43946,-1.00881 1.81802,-8.98588 3.06348,-17.72682 2.44995,-17.19448 3.41199,-19.40498 8.35737,-19.20281 1.50258,0.0614 3.71538,0.97687 4.91736,2.03431 2.15468,1.89559 2.15943,1.98974 0.33749,6.69751 -1.01634,2.62619 -1.9078,6.23999 -1.981,8.03068 -0.1198,2.93061 0.18462,3.30009 3.04796,3.69944 2.95431,0.41204 3.29106,0.8762 4.72438,6.51177 2.1096,8.29465 1.86704,10.27074 -1.65966,13.52041 -2.28036,2.10125 -3.99586,2.77013 -6.86507,2.6767 -2.10375,-0.0685 -4.72479,0.49993 -5.8245,1.26315 -1.09971,0.76323 -3.2267,1.33752 -4.72661,1.2762 -2.2662,-0.0926 -2.86862,0.43251 -3.56417,3.10701 -0.46036,1.77017 -1.72945,4.75833 -2.8202,6.64035 -1.09076,1.88202 -2.31123,5.09371 -2.71218,7.13711 -0.54803,2.79297 -1.28079,3.80462 -2.95176,4.07523 -6.88581,1.11508 -9.43886,1.10124 -10.50608,-0.057 z m 11.64076,-2.1448 c 0.7222,-0.83487 1.36064,-2.68085 1.41874,-4.10216 0.0581,-1.42131 0.85193,-3.56209 1.76405,-4.75729 0.91213,-1.19519 2.28581,-4.04947 3.05263,-6.34281 1.25592,-3.75614 1.7693,-4.21507 5.17588,-4.6268 2.07993,-0.25138 4.31949,-0.95262 4.97682,-1.55831 0.65732,-0.60569 2.92413,-1.03057 5.03737,-0.94418 2.7472,0.1123 4.56979,-0.51332 6.395,-2.19517 3.02143,-2.7841 3.19204,-4.4614 1.28227,-12.60613 -1.42476,-6.07626 -1.47131,-6.13377 -4.76359,-5.88518 -3.28868,0.2483 -3.32294,0.20633 -3.15644,-3.86659 0.0926,-2.2647 0.99777,-6.26083 2.01152,-8.8803 1.75247,-4.52833 1.7555,-4.83246 0.0614,-6.18079 -2.256,-1.79552 -6.80767,-2.01754 -8.26295,-0.40305 -0.61204,0.67899 -2.38783,9.69011 -3.9462,20.02472 -1.55838,10.33461 -2.96963,18.91572 -3.13613,19.06912 -0.3593,0.3311 -17.15705,-23.86138 -23.68019,-34.10472 -2.51204,-3.94466 -6.02294,-10.39345 -7.80201,-14.33064 -1.77907,-3.93719 -3.70039,-7.48246 -4.26959,-7.87838 -1.57152,-1.0931 -6.76354,1.71794 -6.79375,3.67823 -0.0524,3.40251 2.36766,9.27703 7.49637,18.1967 7.31841,12.72793 10.24136,19.71337 13.32489,31.84457 2.04492,8.04512 2.60088,12.47432 2.34659,18.69479 -0.18329,4.48348 -0.0617,8.44652 0.27025,8.80675 1.09543,1.1888 9.85794,-0.10429 11.19709,-1.65238 z m -2.98688,-18.74392 c 0.0319,-0.77937 -0.19939,-2.25254 -0.51389,-3.27372 -0.39004,-1.26649 -0.25613,-1.52565 0.42126,-0.81527 1.53535,1.61012 2.327,5.59973 1.1012,5.54962 -0.58658,-0.024 -1.04043,-0.68127 -1.00857,-1.46063 z m 20.67217,-7.25099 c -0.66529,-1.97087 0.76516,-8.21875 2.04687,-8.94027 0.55338,-0.3115 0.93151,0.8942 0.86322,2.75248 -0.0663,1.81877 0.10824,4.32955 0.38906,5.57957 0.37828,1.68392 0.0839,2.25531 -1.13608,2.20543 -0.90565,-0.037 -1.87903,-0.75577 -2.16307,-1.59721 z m 2.10955,-2.15811 c -0.7807,-3.96118 -1.21148,-4.11085 -1.36021,-0.47262 -0.0711,1.74022 0.32884,3.18276 0.88885,3.20565 0.60446,0.0247 0.79599,-1.08585 0.47136,-2.73303 z"
     style="fill:#000000" />
  <path
     id="path3727"
     d="m 989.59284,241.79005 -13.1618,-6.79942 0.1316,-3.2196 c 0.072,-1.77079 0.6628,-4.12492 1.3118,-5.23142 1.0264,-1.74981 19.3183,-20.78779 50.83406,-52.90754 l 9.1229,-9.29767 -18.3305,-15.54146 -18.3305,-15.54147 -7.07306,1.78892 c -5.8362,1.47607 -8.2843,1.62528 -13.9989,0.85321 l -6.9258,-0.93571 0.7291,-5.5216 0.7291,-5.5216 -4.6597,1.20815 c -6.5395,1.69553 -8.2123,1.4472 -10.919,-1.62093 -4.354,-4.93534 -6.2353,-11.39914 -5.9034,-20.28296 0.2582,-6.902555 0.6783,-8.665755 3.0532,-12.808496 3.8423,-6.702253 7.7401,-10.516495 15.2489,-14.921907 l 6.4686,-3.795159 15.3541,0.327883 c 14.22386,0.303747 15.66206,0.492802 19.53726,2.568263 4.3896,2.350908 9.9741,9.143172 13.0895,15.920186 1.3465,2.929125 1.7737,6.244215 1.7803,13.81359 0,5.47774 0.1449,10.81392 0.3112,11.85817 0.2835,1.77798 2.4842,3.92233 20.6369,20.10833 l 7.0728,6.30644 2.5438,-2.16252 c 1.399,-1.18937 10.9612,-11.68596 21.2492,-23.32573 10.2879,-11.63978 19.0111,-21.150735 19.3847,-21.135465 0.3735,0.0153 4.0918,7.628275 8.2627,16.917775 l 7.5835,16.88998 -11.6219,12.37621 c -6.3919,6.80691 -13.9507,14.84311 -16.7973,17.85821 -2.8465,3.0151 -5.1899,5.8327 -5.2074,6.26132 -0.017,0.42862 4.2405,5.53438 9.4621,11.34614 l 9.4942,10.56682 13.0602,0.0641 c 11.5192,0.0565 13.839,0.33584 19.659,2.36678 10.644,3.71426 15.6212,11.22117 16.3975,24.73209 l 0.3204,5.575 -3.4002,-3.60303 -3.4001,-3.60301 -15.482,-0.37294 -15.482,-0.37294 -0.8062,13.32986 -0.8061,13.32987 4.2543,3.31597 c 3.9051,3.04387 4.0693,3.33583 2.002,3.55806 -1.2387,0.13314 -6.2705,-0.0904 -11.1818,-0.49675 -10.2975,-0.85203 -16.7939,-3.58449 -23.0076,-9.67721 -5.0827,-4.98375 -5.9777,-8.59307 -5.2792,-21.28815 l 0.5848,-10.62784 -9.1991,-8.86057 c -5.3027,-5.10758 -9.8749,-8.77233 -10.7948,-8.65225 -0.8776,0.11457 -13.2734,14.05479 -27.5463,30.97827 -14.2729,16.92345 -26.2302,30.75536 -26.572,30.73753 -0.3417,-0.018 -6.54406,-3.09215 -13.78306,-6.83184 z m -0.5508,-119.1842 c 0.9797,-0.9974 2.0898,-1.80084 2.467,-1.78542 0.3772,0.0154 0.8728,0.88451 1.1013,1.9313 0.5996,2.74672 2.0492,2.4042 3.5506,-0.83896 l 1.304,-2.81706 2.1374,2.17901 c 1.68106,1.71389 2.15016,1.86563 2.19736,0.71084 0.033,-0.8075 1.1476,-2.11893 2.477,-2.91429 1.3293,-0.79536 2.4493,-2.23842 2.4889,-3.2068 0.04,-0.96837 0.6572,-1.95822 1.3725,-2.19967 0.733,-0.24741 1.6758,-2.58982 2.1604,-5.3675 0.6913,-3.96223 0.5789,-5.10122 -0.5735,-5.80944 -0.8552,-0.52559 -1.3811,-2.15969 -1.3038,-4.051155 0.071,-1.74362 -0.3435,-3.34973 -0.9219,-3.56913 -0.7198,-0.2731 -0.4968,-1.37188 0.7071,-3.483815 l 1.7585,-3.084899 -4.4538,0.318472 c -4.1364,0.295766 -4.5557,0.123051 -5.88146,-2.42257 l -1.4276,-2.741045 -2.7575,2.433861 -2.7575,2.433861 -1.6028,-2.315741 -1.6026,-2.315734 -1.8284,2.824836 -1.8283,2.824836 -2.2402,-1.915382 c -3.1441,-2.688107 -3.8501,-2.456527 -4.0042,1.313484 -0.1483,3.628174 -0.7801,3.955386 -3.4291,1.776083 -3.0057,-2.4727 -4.1102,-1.916611 -4.2766,2.153016 -0.1236,3.024417 -0.494,3.752347 -1.8801,3.695687 -2.9416,-0.12025 -3.1556,1.05098 -0.7005,3.832695 l 2.3601,2.67389 -2.6859,1.27029 -2.6861,1.27029 2.9492,1.68115 c 2.4317,1.38622 2.8327,2.07601 2.2853,3.93206 -0.5665,1.92101 -0.1764,2.47849 2.6634,3.80363 2.6015,1.21403 3.3054,2.08309 3.2277,3.98422 -0.1206,2.9506 1.9586,4.0242 5.2209,2.6959 2.1191,-0.86285 2.474,-0.74603 2.841,0.93529 0.5275,2.41624 1.3241,2.4528 3.5722,0.16392 z"
     style="stroke-width:0.94234878" />
  <path
     id="path3729"
     d="m 939.42784,168.04813 c -1.0964,-0.34031 -1.8822,-2.82996 -2.8029,-8.88103 -1.6363,-10.75469 -3.3855,-14.0154 -8.0709,-15.04529 -4.119,-0.90537 -8.84025,-5.31121 -11.25178,-10.49987 -0.91179,-1.96183 -1.65096,-3.73436 -1.6426,-3.93895 0.008,-0.2046 6.27678,-0.4094 13.92978,-0.4551 13.4134,-0.0801 37.9317,-1.39725 40.8805,-2.19613 1.2283,-0.33273 1.3543,1.70866 0.8913,14.43308 -0.3566,9.79927 -0.1336,16.97635 0.6583,21.18326 1.0409,5.52997 1.0164,6.42382 -0.1871,6.83009 -1.5957,0.53865 -30.117,-0.72003 -32.4046,-1.43006 z"
     style="stroke-width:0.94234878" />
  <path
     id="path3731"
     d="m 938.37124,220.09881 1.1766,-28.7811 6.3858,0.26105 c 6.1289,0.25055 8.5662,-0.12657 21.8018,-3.37332 3.2759,-0.80361 6.1606,-1.23937 6.4104,-0.96838 0.2496,0.27101 0.6006,13.15033 0.7798,28.62072 0.2317,20.00698 0.025,28.29714 -0.715,28.7139 -0.5725,0.32225 -8.385,1.23864 -17.3612,2.0364 -8.976,0.79777 -17.0704,1.63529 -17.9875,1.86116 -1.562,0.38475 -1.593,-1.40547 -0.4907,-28.37043 z"
     style="stroke-width:0.94234878" />
  <path
     id="path3733"
     d="m 874.73993,242.42709 c 0.34122,-0.50477 1.92917,-0.86427 3.52877,-0.79888 l 2.90836,0.11889 -3.05251,-2.24683 c -3.48507,-2.56525 -11.11181,-14.55949 -21.70393,-34.13281 -11.47508,-21.20497 -13.29198,-26.11326 -14.5753,-39.37464 -0.60588,-6.26106 -0.7993,-12.08456 -0.42979,-12.94111 0.49801,-1.15444 1.83678,-1.51422 5.1745,-1.39058 5.74164,0.2127 21.05072,-1.32474 32.99217,-3.31327 5.10499,-0.8501 9.48975,-1.31996 9.7439,-1.04414 0.25416,0.27582 -0.67081,1.61789 -2.0555,2.98236 l -2.51759,2.48087 1.74528,22.70661 c 0.9599,12.48864 1.9277,24.49049 2.15066,26.6708 0.36223,3.54212 1.21061,4.7065 7.96816,10.93602 8.01211,7.38605 9.99502,8.43558 9.29673,4.92066 -1.91757,-9.65238 -5.31662,-47.13283 -5.32269,-58.69203 l -0.007,-13.91154 15.18624,0.62081 c 14.73105,0.60221 15.22315,0.68598 16.41605,2.79314 1.8573,3.28084 2.8129,9.30814 4.1868,26.4076 1.3572,16.89028 1.3653,28.90022 0.036,52.51686 l -0.8608,15.29077 -14.2341,-0.58189 -14.23413,-0.5819 -7.38016,-7.09085 c -4.05908,-3.89998 -8.29765,-7.96536 -9.41904,-9.03419 -1.1214,-1.06882 -2.25257,-1.74642 -2.51374,-1.50577 -0.26117,0.24065 0.33891,4.52874 1.33352,9.52909 l 1.80838,9.09155 -5.65234,0.35819 c -8.10177,0.5134 -11.23522,0.27986 -10.51619,-0.78379 z"
     style="stroke-width:0.94234878" />
  <path
     id="path3735"
     d="m 808.56652,239.45253 c -5.51619,-10.78058 -6.14421,-15.65508 -6.56145,-50.92819 -0.12586,-10.63901 -0.38678,-20.66931 -0.57984,-22.28958 -0.3504,-2.94066 -0.31747,-2.96335 18.4074,-12.68719 10.31714,-5.35768 18.99212,-9.73169 19.27775,-9.72002 0.28563,0.0117 0.4015,3.09339 0.2575,6.84827 -0.14349,3.75488 0.18366,11.30155 0.72811,16.77042 0.81295,8.16573 1.69139,11.56498 4.91354,19.0138 4.38612,10.13963 12.25217,24.91909 22.02522,41.38303 3.58829,6.04492 6.39438,11.09223 6.23576,11.21624 -0.15861,0.12401 -5.66411,0.50057 -12.23442,0.8368 -6.57031,0.33623 -13.38362,0.96074 -15.14068,1.38784 -1.75706,0.42708 -3.68006,0.75666 -4.27332,0.73241 -0.59327,-0.0242 -3.54011,-5.30692 -6.54854,-11.73925 -3.00844,-6.43233 -5.65415,-11.20942 -5.87938,-10.61577 -0.22522,0.59366 0.96092,5.83108 2.63588,11.63871 1.67494,5.80763 2.89077,10.66918 2.70182,10.80345 -0.49311,0.35042 -19.94157,2.58702 -21.80237,2.50732 -0.89692,-0.0387 -2.66289,-2.22661 -4.16298,-5.15829 z m 17.79451,-31.81591 c 0.83951,-0.48673 0.12742,-3.39355 -2.60352,-10.62791 -5.72925,-15.17686 -6.98817,-15.37171 -4.18359,-0.64748 2.17114,11.39864 3.31032,13.29115 6.78711,11.27539 z"
     style="stroke-width:0.94234878" />
  <path
     id="path3737"
     d="m 695.52873,261.88926 c 0.33004,-0.9739 1.46946,-4.28166 2.53206,-7.35057 3.56388,-10.29298 3.8366,-50.38965 0.52108,-76.6136 -1.89797,-15.01183 -4.44543,-26.45591 -10.99016,-49.37146 -3.1288,-10.95512 -5.92452,-21.15834 -6.21271,-22.67382 l -0.52398,-2.75542 6.71637,0.90221 c 12.06122,1.6202 41.60658,7.07843 42.28175,7.81116 1.79014,1.94274 8.21063,52.31914 9.48504,74.42143 0.2053,3.56053 0.85539,6.61141 1.45333,6.82042 0.59503,0.20799 4.99043,0.79993 9.76756,1.31542 8.59416,0.92738 8.68662,0.91453 8.7738,-1.21809 0.0485,-1.18543 -0.61727,-5.06701 -1.4794,-8.6257 -2.47311,-10.20842 -6.53043,-45.08967 -7.34185,-63.1188 -0.97041,-21.561535 -1.39564,-20.73669 11.7526,-22.796825 12.72508,-1.99383 22.66785,-4.3978 35.14723,-8.49791 5.47247,-1.79799 10.09591,-3.11068 10.2743,-2.917085 0.17839,0.193595 -1.17954,3.218662 -3.01762,6.722375 l -3.34197,6.370385 -1.15273,29.66165 c -1.06066,27.29216 -1.18161,60.48477 -0.31459,86.28407 0.33452,9.95422 0.51717,10.72164 4.36674,18.3468 2.20969,4.37692 4.01095,8.12136 4.00279,8.32098 -0.008,0.19962 -7.11817,0.22712 -15.80002,0.0611 l -15.78519,-0.30183 -7.47077,3.5755 c -4.10893,1.96653 -7.62894,3.29456 -7.82223,2.95118 -0.19331,-0.34339 -0.2748,-10.05651 -0.18111,-21.58471 l 0.17035,-20.96038 -11.63409,-0.4756 c -6.39876,-0.26158 -11.64845,-0.12473 -11.66598,0.30412 -0.0175,0.42885 2.48149,7.57217 5.55336,15.87404 3.07188,8.30189 5.44284,15.19042 5.26881,15.30788 -0.17403,0.11745 -8.7574,4.24878 -19.07415,9.18074 -10.31676,4.93195 -22.38045,10.7298 -26.80823,12.88412 -6.5684,3.19583 -7.94004,3.59094 -7.45044,2.1462 z"
     style="stroke-width:0.94234878" />
  <path
     id="path3739"
     d="m 634.55656,250.41614 c -11.43007,-2.38488 -19.23948,-8.5263 -20.30754,-15.97013 -0.32407,-2.25866 -0.39082,-16.46273 -0.14833,-31.56462 l 0.44091,-27.45797 8.04527,-5.8439 c 10.34157,-7.51188 18.0969,-10.91644 27.23766,-11.95724 18.58915,-2.11661 36.63844,7.33307 43.34316,22.69225 2.71416,6.21763 4.78332,16.23859 5.05479,24.48035 l 0.1944,5.90254 -9.26098,-0.36848 c -5.09357,-0.20222 -15.21859,0.0192 -22.50012,0.49316 -7.28151,0.4739 -13.39223,0.85617 -13.57937,0.84948 -0.18713,-0.007 -0.111,1.56231 0.16921,3.4867 0.69313,4.76038 3.24691,10.38164 4.61289,10.1537 0.61497,-0.10263 7.82993,-0.18891 16.03323,-0.19173 23.97287,-0.008 25.62565,0.86118 25.12066,13.21418 -0.488,11.93708 -2.03595,13.08074 -18.99296,14.03232 -11.44933,0.6425 -38.62257,-0.52337 -45.46288,-1.95061 z m 37.78448,-47.38665 c -0.34249,-4.14645 -4.25251,-11.96646 -7.14802,-14.29597 -3.7955,-3.05359 -9.57993,-5.2536 -14.27159,-5.42794 -6.58674,-0.24475 -6.72929,0.19438 -3.43873,10.59362 1.61747,5.11176 3.1781,9.71554 3.46807,10.23065 0.30512,0.542 4.96289,1.00583 11.05645,1.10101 l 10.52924,0.16445 z"
     style="stroke-width:0.94234878" />
  <path
     id="path3741"
     d="m 481.15462,254.97889 c -0.74742,-1.3295 -5.47607,-39.42147 -6.56361,-52.87358 -0.54313,-6.71811 -1.36992,-13.00533 -1.83732,-13.97158 -1.45902,-3.01625 -4.45707,-21.13 -10.14163,-61.27421 l -5.48443,-38.730794 3.78064,-3.306821 c 2.9011,-2.537515 4.85416,-3.405288 8.39516,-3.730073 8.63116,-0.79166 19.75963,-2.644694 41.42728,-6.898179 11.89731,-2.33551 23.5135,-4.426398 25.81378,-4.646417 l 4.18231,-0.400034 4.23557,15.145234 c 5.24248,18.745694 7.71238,30.616534 8.73921,42.002554 0.87246,9.67417 2.20932,12.38187 2.62697,5.32068 0.14717,-2.48854 1.27108,-17.00372 2.49754,-32.255965 l 2.22994,-27.731349 9.44344,-0.295462 c 33.08332,-1.035094 48.47388,-2.571809 61.56333,-6.146969 4.14709,-1.132708 7.64947,-1.940841 7.78308,-1.795851 0.558,0.605581 -4.53761,8.200513 -12.21284,18.203034 l -8.19552,10.680574 -1.15788,13.458598 c -4.95611,57.60723 -7.74238,114.90736 -6.24389,128.40685 l 0.43111,3.88378 -8.42873,1.74126 c -6.82999,1.41096 -15.52924,4.14824 -25.76342,8.1066 -2.07336,0.80193 -5.3556,-18.51539 -6.38838,-37.59831 -0.32262,-5.96095 -0.7601,-11.0264 -0.9722,-11.25658 -0.54117,-0.58731 -0.73658,-0.002 -6.88563,20.62596 -3.02611,10.15159 -5.91268,19.12562 -6.41458,19.94229 -0.69793,1.13566 -2.64383,-2.36464 -8.27446,-14.88417 -8.6293,-19.18705 -11.44766,-24.33738 -13.3606,-24.41558 -2.02828,-0.0829 -1.93988,2.71204 0.82567,26.10475 1.3469,11.39289 2.44055,20.97678 2.43033,21.29753 -0.0101,0.32078 -3.86177,0.91722 -8.559,1.32546 -5.09248,0.44258 -12.29388,1.96116 -17.83757,3.76145 -8.14971,2.64661 -10.64951,3.02074 -20.25474,3.03147 -6.02667,0.007 -11.16969,-0.36504 -11.42893,-0.82615 z"
     style="stroke-width:0.94234878" />
  <path
     id="path3743"
     d="m 401.56105,248.52177 c -4.93817,-1.25052 -19.87287,-8.94886 -21.6292,-11.14913 -1.36045,-1.70433 -10.72894,-52.22617 -10.54028,-56.84101 0.27786,-6.79692 12.29908,-17.78901 25.96364,-23.74089 9.78749,-4.26316 14.03565,-5.01732 25.65082,-4.55373 16.88647,0.67401 28.1499,5.44021 38.08835,16.11749 7.92084,8.50969 12.93424,20.01144 13.10484,30.06519 0.15442,9.10001 -1.49911,15.90654 -5.86046,24.12379 -6.11191,11.5155 -17.27719,20.71611 -30.58179,25.20057 -5.47815,1.84647 -8.31134,2.15775 -18.26576,2.00683 -6.48004,-0.0982 -13.64861,-0.65134 -15.93016,-1.22911 z m 18.87265,-11.54196 c 12.92568,-1.8189 25.38415,-10.56346 31.28008,-21.9554 2.38882,-4.61562 2.81436,-6.55212 3.13885,-14.28395 0.33166,-7.89258 0.0924,-9.58572 -2.03126,-14.39756 -3.20355,-7.25877 -11.23322,-15.286 -18.39714,-18.39153 -7.57786,-3.28497 -17.07196,-4.27517 -25.83636,-2.69462 -8.41613,1.51775 -14.53968,4.54613 -20.97295,10.37211 -15.50708,14.04323 -17.07634,35.92776 -3.54673,49.46201 10.02478,10.02822 21.92985,13.92034 36.36551,11.88894 z"
     style="stroke-width:0.94234878" />
  <path
     id="path3745"
     d="m 411.92802,210.84901 c -10.38758,-5.03706 -7.94023,-19.13201 3.46354,-19.94743 5.63138,-0.40268 8.35083,0.42615 11.83042,3.60565 5.66351,5.17506 2.09204,15.16109 -6.10927,17.08185 -4.48193,1.04967 -5.69548,0.95189 -9.18469,-0.74007 z"
     style="stroke-width:0.94234878" />
  <path
     id="path3747"
     d="m 408.7578,223.77384 c -0.2301,-0.30151 -0.2711,-1.28431 -0.16344,-3.91795 0.13943,-3.41056 0.16085,-3.52823 0.71782,-3.94275 0.7349,-0.54694 1.81332,-0.50293 2.3657,0.0965 0.54295,0.58924 0.72764,2.97562 0.41968,5.42277 -0.29182,2.3189 -0.66775,2.84054 -2.0076,2.78577 -0.6663,-0.0272 -1.1325,-0.18275 -1.33216,-0.44437 z"
     style="stroke-width:0.23558719" />
  <path
     id="path3749"
     d="m 421.20229,224.2625 c -0.41676,-0.50013 -1.24763,-2.63408 -1.33043,-3.41694 -0.0206,-0.19537 -0.1847,-1.01316 -0.36453,-1.81732 -0.60391,-2.70047 -0.40706,-3.1657 1.30982,-3.09551 1.30054,0.0532 2.00248,1.00442 2.42587,3.28744 0.19331,1.0425 0.32767,2.69026 0.29855,3.66167 l -0.053,1.76622 -0.95661,0.0312 c -0.69233,0.0225 -1.05969,-0.0926 -1.32973,-0.41667 z"
     style="stroke-width:0.23558719" />
  <path
     id="path3751"
     d="m 336.92129,242.46429 c 0.13255,-0.31878 1.61574,-4.55531 3.29597,-9.41451 l 3.05496,-8.83491 -2.07851,-34.89442 c -1.14318,-19.19193 -2.27667,-35.10947 -2.51884,-35.37229 -0.24219,-0.26284 -3.65605,-0.78909 -7.58638,-1.16945 -3.93031,-0.38037 -7.20547,-0.77069 -7.27812,-0.86737 -0.0726,-0.0967 -0.43069,-1.67344 -0.79563,-3.50389 -0.36495,-1.83046 -1.03352,-4.98782 -1.48573,-7.01637 l -0.82219,-3.68827 -14.60958,-0.59724 -14.60957,-0.59724 -2.54908,-2.33336 c -11.58728,-10.60673 -20.94745,-19.45967 -20.93357,-19.79919 0.0263,-0.64324 1.70592,-0.87019 8.29827,-1.12124 4.73635,-0.18037 43.7906,-0.56988 46.40849,-0.46286 1.10543,0.0452 0.43056,-1.13045 -4.34628,-7.57145 -2.70394,-3.64594 -4.90947,-6.794985 -4.90118,-6.997885 0.0245,-0.59888 0.14377,-0.6038 49.24407,-2.03294 2.27212,-0.0661 4.1247,0.0371 4.11684,0.22937 -0.008,0.19228 -1.85241,3.785875 -4.099,7.985755 -2.24659,4.19988 -4.08777,7.71107 -4.09152,7.80265 -0.004,0.0916 9.20874,0.54322 20.47217,1.00367 l 20.47899,0.83719 -0.75984,18.58689 -0.75984,18.58689 -1.06822,0.17603 c -0.58752,0.0968 -5.41652,0.12902 -10.7311,0.0716 -11.5757,-0.12518 -22.09611,0.0923 -23.24615,0.48047 -0.45924,0.15502 -0.85169,0.6908 -0.87212,1.19062 -0.0537,1.31223 9.62613,53.52534 16.28385,87.83575 0.1158,0.59679 -1.0368,0.71843 -7.17322,0.75709 -4.02115,0.0253 -12.99154,0.34916 -19.93419,0.71963 -14.65399,0.78196 -14.7242,0.78201 -14.40375,0.0113 z"
     style="stroke-width:0.47117439" />
  <path
     id="path3753"
     d="m 238.52561,252.43078 c -2.27002,-1.28206 -4.27981,-2.4887 -4.4662,-2.68142 -0.47722,-0.49347 -7.96946,-24.84547 -9.90918,-32.20779 -1.11018,-4.21371 -1.57505,-6.98603 -1.49594,-8.92118 0.0953,-2.33188 -0.21445,-3.61099 -1.82819,-7.54862 -2.4781,-6.04677 -2.99444,-8.14247 -3.64683,-14.80183 -0.72583,-7.40906 -2.51636,-16.61365 -6.60373,-33.94796 -1.90114,-8.06257 -3.39104,-14.71769 -3.31091,-14.78918 0.0801,-0.0715 7.78601,-0.15239 17.12418,-0.17978 9.33816,-0.0274 19.56624,-0.0689 22.72907,-0.0923 l 5.75058,-0.0425 0.2081,1.57569 c 0.11446,0.86663 0.63189,14.53755 1.14983,30.37983 1.00742,30.8131 1.57522,43.02273 2.11305,45.43751 0.82699,3.71305 4.92491,8.12435 9.80134,10.55087 4.27591,2.1277 15.57894,2.35007 21.05575,0.41424 l 1.87661,-0.66331 -0.15932,-2.87815 c -0.19785,-3.57404 -2.1527,-13.12844 -9.26035,-45.26011 -7.49476,-33.88169 -8.44501,-38.36512 -8.1826,-38.60692 0.34757,-0.32027 39.95251,3.97772 43.97616,4.77235 l 1.67521,0.33084 1.45935,7.45886 c 3.96823,20.28193 15.49,89.38337 15.37452,92.2082 -0.022,0.53734 -2.18359,0.8695 -21.76808,3.34488 -9.45508,1.19507 -28.11015,3.62678 -41.45568,5.40378 -13.34554,1.77701 -25.12294,3.19584 -26.17202,3.15295 -1.33912,-0.0547 -3.13708,-0.77246 -6.03472,-2.40897 z"
     style="stroke-width:0.47117439" />
  <path
     id="path3755"
     d="m 47.975352,328.97402 c -0.30986,-0.72592 -0.56707,-3.69962 -0.57158,-6.60823 -0.01,-6.24708 1.58768,-22.65414 2.46165,-25.28464 0.33621,-1.01193 0.71143,-3.85174 0.83383,-6.31067 0.13515,-2.71593 0.48006,-4.89173 0.87859,-5.54318 0.36979,-0.60449 0.9482,-3.87286 1.32569,-7.49089 0.36831,-3.53018 0.94701,-7.23713 1.28601,-8.23767 0.46306,-1.36673 0.52016,-2.73766 0.22935,-5.51249 -0.31636,-3.02131 -0.23303,-4.31259 0.45802,-7.09671 0.4646,-1.87187 1.60521,-8.6532 2.53466,-15.06962 0.92945,-6.41643 1.9208,-12.52986 2.20299,-13.58541 0.28218,-1.05556 0.7063,-3.75007 0.94247,-5.98783 0.54098,-5.12565 2.80088,-17.21856 3.41157,-18.25546 0.25289,-0.42938 0.4976,-1.70558 0.54381,-2.836 0.0462,-1.13042 0.32144,-2.27408 0.61163,-2.54147 0.29018,-0.26738 0.93842,-3.09505 1.44054,-6.28369 2.26174,-14.36303 9.70311,-45.41963 15.8749,-66.25394 3.24616,-10.95819 8.74189,-27.894265 17.06521,-52.58955 4.440718,-13.175624 10.207388,-30.340737 12.814808,-38.144698 2.60743,-7.803959 5.21121,-15.166826 5.78616,-16.361927 1.28464,-2.670216 3.83674,-4.480687 10.65014,-7.555267 7.27062,-3.2809087 10.98981,-3.1942577 13.44294,0.313199 1.84871,2.643261 3.18094,6.066552 6.18448,15.891682 9.24592,30.245171 29.43548,87.627351 35.73058,101.552471 2.21539,4.90055 9.04016,18.79524 20.61806,41.97671 4.42996,8.86973 10.20832,20.62425 12.84081,26.12113 5.48747,11.45842 5.48504,10.30671 0.0286,13.55222 -3.23965,1.92695 -12.00925,5.63295 -13.18498,5.57191 -0.86158,-0.0442 -4.97893,-7.71054 -12.94167,-24.0951 -3.27936,-6.7478 -8.3995,-16.9732 -11.37807,-22.7231 -6.1554,-11.88253 -17.48767,-36.99413 -23.58862,-52.27094 -4.73932,-11.86727 -10.26836,-27.483087 -19.56557,-55.259478 -3.60749,-10.777777 -6.72999,-19.781435 -6.93888,-20.008132 -0.63283,-0.686768 -4.55306,9.581151 -13.17399,34.505401 -13.96058,40.361929 -26.836418,88.120289 -31.227448,115.827239 -0.69045,4.35665 -1.72891,9.30927 -2.30769,11.00583 -1.03303,3.02807 -3.19069,16.68658 -7.67051,48.55619 -2.11925,15.07638 -3.62889,31.68293 -2.88287,31.71239 0.23275,0.009 3.49818,-2.53054 7.25652,-5.64387 10.04643,-8.32222 16.07258,-12.67473 25.267608,-18.25009 17.59686,-10.66976 33.33576,-17.02749 51.305,-20.72465 8.00153,-1.64631 12.35536,-2.05289 19.40836,-1.81243 6.74753,0.23011 8.69379,0.79507 9.49207,2.75563 0.64787,1.59116 1.36102,7.54679 1.00304,8.3766 -0.15714,0.36427 -3.27624,1.99349 -6.93133,3.62047 -5.72574,2.54869 -7.00417,2.94635 -9.23578,2.87286 l -2.59013,-0.0853 -0.97029,-2.26399 c -1.35763,-3.1678 -2.06671,-3.46768 -7.96901,-3.37017 -12.42591,0.20528 -29.62558,5.48986 -41.9826,12.89914 -13.20234,7.91611 -32.567308,25.11258 -40.453498,35.92348 -4.65693,6.38402 -6.62031,10.99785 -9.12187,21.43599 -0.51539,2.15052 -0.95188,2.89948 -2.18627,3.75133 -1.86557,1.28745 -14.96074,7.21722 -15.85739,7.18056 -0.35028,-0.0143 -0.89041,-0.61996 -1.20028,-1.34588 z"
     style="stroke-width:0.47117439" />
  <path
     id="path3757"
     d="m 131.96473,226.28029 c -0.41347,-0.3015 -0.61572,-2.93795 -0.68143,-8.88306 -0.0971,-8.78193 -0.56831,-12.17447 -2.93938,-21.16119 -2.49963,-9.47398 -5.56801,-16.65589 -12.15618,-28.45301 -5.89091,-10.54854 -8.57053,-17.25518 -7.77259,-19.4535 0.45668,-1.25815 3.60053,-3.12475 5.1558,-3.06117 1.38494,0.0566 2.18203,1.33132 6.78806,10.85523 3.11863,6.44837 8.19986,14.5205 18.45436,29.31683 10.59291,15.28464 11.35813,16.32483 11.74626,15.96718 0.28894,-0.26625 0.57206,-1.87883 3.97384,-22.63385 2.3811,-14.52759 2.83049,-16.16606 4.64787,-16.94602 1.83033,-0.78553 5.15321,-0.11999 6.72374,1.34669 l 1.21788,1.13737 -0.98229,2.96826 c -1.6157,4.88229 -2.46785,8.43654 -2.5805,10.76313 -0.16734,3.45679 0.0266,3.6943 3.12093,3.82079 1.82856,0.0748 2.89704,0.34742 3.26842,0.83405 0.74155,0.97169 2.87395,10.56331 2.79276,12.56198 -0.0356,0.8757 -0.53232,2.28398 -1.10389,3.12952 -1.67633,2.4798 -3.54243,3.40454 -7.42626,3.68006 -1.9141,0.13578 -4.3538,0.64847 -5.42155,1.13932 -1.06775,0.49083 -3.28253,1.14804 -4.92173,1.46044 -3.32117,0.63298 -3.81606,1.06811 -5.08767,4.47346 -0.48662,1.30317 -1.67122,3.79444 -2.63244,5.53616 -0.96123,1.74173 -1.98538,4.32635 -2.27593,5.74359 -0.73933,3.60651 -1.60697,4.61807 -4.56353,5.32046 -3.43535,0.81614 -6.64059,1.05062 -7.34455,0.53728 z m 9.33368,-19.25492 c 0.56506,-1.30988 -1.00929,-5.49131 -2.08407,-5.53525 -0.54628,-0.0223 -0.0244,4.41128 0.65539,5.56771 0.47231,0.80348 1.07397,0.78981 1.42868,-0.0325 z m 22.47601,-7.83221 c -0.21115,-7.07317 -0.55691,-9.45412 -1.37778,-9.48768 -0.86091,-0.0352 -1.76394,2.31781 -2.24826,5.85822 -0.34668,2.53436 -0.27694,2.99424 0.59811,3.94388 1.34552,1.46022 3.07554,1.28057 3.02793,-0.31442 z"
     style="stroke-width:0.47117439" />
</svg>
